<svg width="34" height="34" viewBox="0 0 34 34" fill="none" xmlns="http://www.w3.org/2000/svg">
<path d="M24.044 0C24.5057 0 24.8867 0.335444 24.9426 0.769011L24.9497 0.879311L24.949 2.931L30.0818 2.93103C31.6359 2.93103 32.9063 4.11057 32.995 5.59789L33 5.76437V31.1667C33 32.7315 31.6935 34 30.0818 34H3.91824C2.30654 34 1 32.7315 1 31.1667V5.76437C1 4.19956 2.30654 2.93103 3.91824 2.93103L9.05 2.931L9.05031 0.879311C9.05031 0.393681 9.45579 0 9.95597 0C10.4177 0 10.7987 0.335444 10.8546 0.769011L10.8616 0.879311L10.861 2.931H23.138L23.1384 0.879311C23.1384 0.393681 23.5438 0 24.044 0ZM9.05 4.689L3.91824 4.68966C3.30691 4.68966 2.81132 5.17082 2.81132 5.76437V31.1667C2.81132 31.7602 3.30691 32.2414 3.91824 32.2414H30.0818C30.6931 32.2414 31.1887 31.7602 31.1887 31.1667V5.76437C31.1887 5.17082 30.6931 4.68966 30.0818 4.68966L24.949 4.689L24.9497 6.74138C24.9497 7.22701 24.5442 7.62069 24.044 7.62069C23.5823 7.62069 23.2013 7.28525 23.1454 6.85168L23.1384 6.74138L23.138 4.689H10.861L10.8616 6.74138C10.8616 7.22701 10.4562 7.62069 9.95597 7.62069C9.49427 7.62069 9.11326 7.28525 9.05737 6.85168L9.05031 6.74138L9.05 4.689ZM21.9563 14.7398C22.1921 14.9756 22.1977 15.3523 21.9687 15.5813C21.7398 15.8102 21.3631 15.8046 21.1273 15.5689C19.2017 13.6432 16.1251 13.5978 14.2555 15.4674C12.3859 17.337 12.4313 20.4136 14.3569 22.3392C16.2825 24.2648 19.3592 24.3102 21.2287 22.4406C21.4577 22.2117 21.8344 22.2173 22.0702 22.4531C22.306 22.6888 22.3115 23.0656 22.0826 23.2945C19.7552 25.6219 15.9251 25.5654 13.5279 23.1682C11.1307 20.771 11.0742 16.941 13.4016 14.6135C15.7291 12.2861 19.5591 12.3426 21.9563 14.7398Z" fill="#303644"/>
</svg>
