<svg width="200" height="105" viewBox="0 0 200 105" fill="none" xmlns="http://www.w3.org/2000/svg">
<path d="M87.0752 24.3575L74.5029 31.6594L61.9336 24.3575L74.5029 17.0557L87.0752 24.3575Z" fill="#2F2F2F" fill-opacity="0.3"/>
<path d="M137.358 24.3575L124.789 31.6594L112.217 24.3575L124.789 17.0557L137.358 24.3575Z" fill="#2F2F2F" fill-opacity="0.3"/>
<path d="M112.217 24.3575L99.6445 31.6594L87.0752 24.3575L99.6445 17.0557L112.217 24.3575Z" fill="#2F2F2F" fill-opacity="0.7"/>
<path d="M87.0753 53.869L74.5029 46.5579V31.6592L87.0753 38.958V53.869Z" fill="#2F2F2F" fill-opacity="0.7"/>
<path d="M87.0752 53.869L99.6475 46.5579V31.6592L87.0752 38.958V53.869Z" fill="#2F2F2F"/>
<path d="M112.217 53.869L124.789 46.5579V31.6592L112.217 38.958V53.869Z" fill="#2F2F2F" fill-opacity="0.7"/>
<path d="M124.789 46.5672L137.358 39.2592V24.3574L124.789 31.6593V46.5672Z" fill="#2F2F2F"/>
<path d="M116.832 66.9219L117.027 66.9913H118.722V80.8109C118.722 80.861 118.716 80.91 118.716 80.9614C118.714 81.0842 118.704 81.2062 118.702 81.329C118.702 81.3349 118.699 81.3418 118.699 81.3477C118.673 82.1148 118.609 82.8688 118.476 83.5975C118.307 84.4992 117.993 85.2967 117.521 85.9878C117.053 86.6849 116.382 87.2405 115.513 87.6623C114.973 87.9228 114.319 88.0912 113.576 88.1914C113.118 88.2533 112.63 88.2936 112.093 88.2936C111.372 88.2936 110.71 88.2042 110.088 88.0528C109.684 87.9555 109.294 87.8334 108.93 87.6723C108.578 87.514 108.239 87.335 107.926 87.1196C106.792 86.3377 106.059 85.1157 105.724 83.4511L109.531 82.5207L109.922 82.4243C109.981 82.9328 110.209 83.3644 110.612 83.7155C111.013 84.0676 111.466 84.2435 111.975 84.2435C112.504 84.2435 112.915 84.1118 113.207 83.8471C113.503 83.5838 113.716 83.2553 113.854 82.8659C113.992 82.4726 114.074 82.0499 114.102 81.5894C114.125 81.2523 114.135 80.9435 114.14 80.6447C114.145 80.5325 114.146 80.4175 114.146 80.3124V66.9913H116.824L116.832 66.9219ZM84.7527 66.9912V71.2158H75.2168V75.0902H84.2236V79.3142H75.2168V83.5403H85.2807V87.7647H70.6405V66.9912H84.7527ZM44.4158 66.9913L44.8869 68.8796L46.4635 75.2115L46.6591 76.0002L47.733 80.3124H47.7905L49.0048 76.5881L49.1416 76.1713L51.2954 69.5606L52.1326 66.9913H56.3893L57.4031 70.2091L59.5103 76.885L59.7232 77.5626L60.7012 80.6643H60.761L61.6852 77.035L61.7875 76.6423L63.2703 70.8315L63.5925 69.5733L64.2526 66.9913H68.8893L67.6298 71.2947L67.496 71.7583L66.709 74.4465L65.8677 77.3227L64.6936 81.3398L63.7477 84.5718L62.8146 87.7646H58.7369L58.4492 86.8668L56.7152 81.4185L56.4636 80.6259L56.0143 79.2158L55.1768 76.5866L54.1587 73.3879H54.0988L53.1254 76.4451L52.4818 78.4712L51.619 81.1786L51.5255 81.4726L49.5225 87.7646H45.5899L44.5693 84.3232L43.7472 81.5492L42.0064 75.6801L40.988 72.2458L39.8293 68.3433L39.4287 66.9913H44.4158ZM150.949 66.9913C152.008 66.9913 153.007 67.0944 153.958 67.2991C154.906 67.5055 155.737 67.8467 156.451 68.326C157.167 68.8054 157.734 69.4509 158.153 70.2627C158.261 70.4725 158.355 70.6982 158.437 70.9347C158.667 71.6131 158.785 72.4012 158.785 73.2995C158.785 74.7665 158.402 76.0129 157.64 77.0404C157.152 77.6977 156.504 78.1835 155.727 78.5311C155.29 78.7283 154.82 78.8914 154.296 78.9927L155.478 80.9584L157.069 83.6004L158.632 86.1952L159.577 87.7646H154.088L151.719 83.2316L151.491 82.7969L150.422 80.7518L149.748 79.4609H147.488V87.7646H142.909V66.9913H150.949ZM132.189 66.9913L132.279 67.1947L134.712 72.7902L135.035 73.5331L135.878 75.4744L137.149 78.3904L138.87 82.3477L141.227 87.7646H136.063L135.962 87.5189L134.317 83.4724L134.273 83.3644H126.205L125.977 83.9395L124.474 87.7646H119.425L121.738 82.4186L122.262 81.2041L124.228 76.6541L126.861 70.5641L127.516 69.0491L128.406 66.9913H132.189ZM96.3102 66.9913C97.209 66.9913 98.1156 67.0553 99.0241 67.182C99.2177 67.2087 99.4075 67.2449 99.5932 67.2842C100.277 67.427 100.905 67.6451 101.474 67.9445C102.199 68.326 102.784 68.8594 103.234 69.5442C103.366 69.7449 103.472 69.9725 103.567 70.2125C103.791 70.7888 103.909 71.4726 103.909 72.2733C103.909 73.4465 103.581 74.42 102.928 75.1922C102.82 75.3202 102.695 75.4333 102.577 75.5493C101.971 76.1329 101.228 76.5727 100.33 76.8496V76.9096C101.017 77.0065 101.637 77.1972 102.194 77.4804C102.682 77.7295 103.101 78.0482 103.467 78.418C103.52 78.4701 103.581 78.5113 103.631 78.5669C104.002 78.973 104.285 79.448 104.495 79.98C104.513 80.0252 104.538 80.0617 104.555 80.1069C104.77 80.6948 104.879 81.3192 104.879 81.9858C104.879 83.0803 104.643 83.9937 104.174 84.7272C103.704 85.4627 103.098 86.0547 102.354 86.5041C101.611 86.9533 100.775 87.276 99.8442 87.4707C99.3998 87.565 98.9542 87.6358 98.5118 87.682C98.0289 87.7361 97.5501 87.7645 97.0732 87.7645H88.5638V66.9913H96.3102ZM96.6229 79.1686H93.143V83.8915H97.2492C97.3869 83.8915 97.5246 83.8815 97.6652 83.8689C97.8805 83.8502 98.0997 83.8215 98.3202 83.7754C98.6811 83.6968 99.0102 83.559 99.3043 83.3644C99.5985 83.1677 99.8362 82.914 100.023 82.6004C100.207 82.2878 100.301 81.9072 100.301 81.4567C100.301 80.9671 100.179 80.5709 99.9336 80.2681C99.8294 80.1402 99.7084 80.0312 99.5826 79.9288C99.4252 79.801 99.2532 79.6928 99.0584 79.6074C99.0418 79.5994 99.029 79.5866 99.0102 79.5778C98.6396 79.4224 98.2365 79.3143 97.8057 79.2562C97.3839 79.1973 96.9907 79.1717 96.6229 79.1686ZM130.163 73.0365L129.511 74.7065L127.641 79.4912H132.718L130.657 74.2846L130.163 73.0365ZM150.479 70.8644H147.488V75.5887H150.187C150.598 75.5887 151.033 75.5737 151.491 75.5449C151.953 75.5143 152.366 75.4268 152.739 75.2808C152.821 75.2489 152.889 75.1966 152.966 75.1559C153.232 75.0135 153.473 74.8354 153.664 74.5906C153.909 74.2783 154.03 73.8383 154.03 73.2705C154.03 72.7424 153.925 72.3226 153.709 72.0084C153.491 71.6962 153.219 71.4559 152.887 71.2897C152.554 71.1235 152.173 71.0113 151.742 70.9529C151.31 70.8934 150.89 70.8644 150.479 70.8644ZM96.2521 70.8643H93.143V75.2957H96.4567C96.8088 75.2957 97.1569 75.2562 97.499 75.1776C97.8403 75.0989 98.1491 74.973 98.4233 74.7962C98.6405 74.6565 98.8157 74.4681 98.9652 74.2537C99.0034 74.1997 99.0486 74.1524 99.0841 74.092C99.2482 73.7989 99.3327 73.4465 99.3327 73.0364C99.3327 72.6059 99.2404 72.2484 99.0546 71.9645C98.8667 71.6815 98.6279 71.4617 98.3339 71.3044C98.0418 71.1486 97.7074 71.0361 97.3368 70.9665C96.9651 70.8993 96.6042 70.8643 96.2521 70.8643Z" fill="#2F2F2F"/>
</svg>
