<svg width="200" height="105" viewBox="0 0 200 105" fill="none" xmlns="http://www.w3.org/2000/svg">
<path fill-rule="evenodd" clip-rule="evenodd" d="M130.742 52.6628C130.742 51.1795 131.945 49.9773 133.427 49.9773C134.911 49.9773 136.113 51.1795 136.113 52.6628C136.113 54.1458 134.911 55.3479 133.427 55.3479C131.945 55.3479 130.742 54.1458 130.742 52.6628ZM173.877 40.4439C171.725 41.8951 168.804 41.3271 167.353 39.1759L163.94 34.067H175.13C176.581 36.2189 176.029 38.9924 173.877 40.4439ZM170.843 42.4834H174.871C176.076 42.4834 177.053 43.4602 177.053 44.6656V60.4417C177.053 61.6468 176.076 62.6239 174.871 62.6239H170.843C169.638 62.6239 168.661 61.6468 168.661 60.4417V44.6656C168.661 43.4602 169.638 42.4834 170.843 42.4834ZM153.915 52.5285V36.2485C153.915 35.0434 152.938 34.067 151.733 34.067H147.706C146.501 34.067 145.524 35.0434 145.524 36.2485V52.5285C145.524 58.6461 150.483 63.6056 156.601 63.6056C162.718 63.6056 167.678 58.6461 167.678 52.5285C167.678 46.4105 162.643 41.4514 157.272 41.4514C157.272 41.4514 155.258 41.4514 155.258 43.4653V47.9971C155.258 49.2248 156.429 49.843 157.272 49.9711C158.565 50.1668 159.286 51.0452 159.286 52.5285C159.286 54.0118 158.084 55.2139 156.601 55.2139C155.118 55.2139 153.915 54.0118 153.915 52.5285ZM60.3451 52.4608V60.3244C60.3451 61.5291 61.3219 62.5063 62.5274 62.5063H66.5548C67.7603 62.5063 68.7371 61.5291 68.7371 60.3244V52.4608C68.7371 46.3436 63.778 41.3845 57.6604 41.3845C51.5424 41.3845 46.5833 46.3436 46.5833 52.4608C46.5833 58.5791 51.6183 63.5382 56.9888 63.5382C56.9888 63.5382 59.0027 63.5382 59.0027 61.5243V56.9929C59.0027 55.7656 57.8321 55.147 56.9888 55.019C55.6957 54.8232 54.9745 53.9441 54.9745 52.4608C54.9745 50.9786 56.1767 49.7764 57.6604 49.7764C59.143 49.7764 60.3451 50.9786 60.3451 52.4608ZM39.3465 34H43.375C44.5798 34 45.5566 34.9761 45.5566 36.1811V60.3488C45.5566 61.5543 44.5798 62.5311 43.375 62.5311H39.3465C38.1418 62.5311 37.165 61.5543 37.165 60.3488V36.1811C37.165 34.9761 38.1418 34 39.3465 34ZM22.392 52.4608V68.7408C22.392 69.9462 21.4152 70.9234 20.2105 70.9234H16.1823C14.9775 70.9234 14 69.9462 14 68.7408V52.4608C14 46.3436 18.9598 41.3845 25.0771 41.3845C31.1954 41.3845 36.1545 46.3436 36.1545 52.4608C36.1545 58.5791 31.1199 63.5382 25.7486 63.5382C25.7486 63.5382 23.7347 63.5382 23.7347 61.5243V56.9929C23.7347 55.7656 24.9054 55.147 25.7486 55.019C27.0414 54.8232 27.7625 53.9441 27.7625 52.4608C27.7625 50.9786 26.5611 49.7764 25.0771 49.7764C23.5948 49.7764 22.392 50.9786 22.392 52.4608ZM89.4711 44.5728C89.4711 43.368 88.4943 42.3912 87.2896 42.3912H83.261C82.0559 42.3912 81.0791 43.368 81.0791 44.5728L81.0747 53.9275C81.0747 54.7156 80.4361 55.3538 79.648 55.3538C78.8599 55.3538 78.2216 54.7156 78.2216 53.9275V44.6127C78.2216 43.4073 77.2448 42.3912 76.0401 42.3912H72.0119C70.8068 42.3912 69.8297 43.2004 69.8297 44.4059V55.147C69.8297 58.3353 72.2236 61.7885 76.5163 61.7885H76.6347C79.0031 61.7885 79.894 61.0019 80.819 60.2471C81.1524 59.8168 81.3259 59.9111 81.3259 60.1627C81.3259 62.5803 78.7663 64.6674 76.6932 64.6467L73.7691 64.6175C72.9033 64.6086 72.4071 65.6235 72.4115 66.1867C72.4178 67.041 72.4267 67.4291 72.4115 68.3771C72.3775 70.5075 74.2922 70.9234 76.7934 70.9234H79.732C82.9262 70.9234 89.4648 67.0754 89.467 60.5279L89.4711 44.5728ZM90.5042 51.2897C90.5042 45.783 94.8994 41.3874 100.322 41.3874C102.413 41.3874 104.352 42.0412 105.945 43.1557C107.537 42.0412 109.476 41.3874 111.567 41.3874C116.99 41.3874 121.385 45.783 121.385 51.2057V60.3529C121.385 61.4651 120.315 62.5348 119.203 62.5348H115.176C114.063 62.5348 112.993 61.4651 112.993 60.3529V51.2057C112.993 50.418 112.355 49.7794 111.567 49.7794C110.779 49.7794 110.141 50.418 110.141 51.2057V60.3529C110.141 61.4651 109.071 62.5348 107.959 62.5348H103.93C102.818 62.5348 101.749 61.4651 101.749 60.3529V51.2897C101.749 50.418 101.11 49.7794 100.322 49.7794C99.534 49.7794 98.8958 50.418 98.8958 51.2057V60.3529C98.8958 61.4651 97.8257 62.5348 96.7139 62.5348H92.6857C91.5735 62.5348 90.5042 61.4651 90.5042 60.3529V51.2897ZM182.877 58.1436H181.661V56.8963H182.891C183.218 56.8963 183.494 57.2097 183.494 57.5368C183.494 57.8635 183.204 58.1436 182.877 58.1436ZM183.025 58.6427C183.691 58.6427 184.063 58.1369 184.063 57.4791C184.063 56.8209 183.49 56.3417 182.832 56.3417H181.03V60.5371H181.657V58.7019H182.329L183.454 60.5075H184.224L183.025 58.6427ZM179.013 58.4392C179.013 56.5274 180.556 54.9771 182.459 54.9771C184.362 54.9771 185.905 56.5274 185.905 58.4392C185.905 60.3518 184.362 61.9021 182.459 61.9021C180.556 61.9021 179.013 60.3518 179.013 58.4392ZM178.611 58.4392C178.611 56.314 180.334 54.5909 182.459 54.5909C184.584 54.5909 186.308 56.314 186.308 58.4392C186.308 60.5645 184.584 62.288 182.459 62.288C180.334 62.288 178.611 60.5645 178.611 58.4392ZM180.44 34.0925H184.468C185.673 34.0925 186.65 35.0686 186.65 36.274V60.4417C186.65 61.6468 185.673 62.6239 184.468 62.6239H180.44C179.235 62.6239 178.258 61.6468 178.258 60.4417V36.274C178.258 35.0686 179.235 34.0925 180.44 34.0925ZM122.35 52.4608C122.35 46.3436 127.31 41.3845 133.427 41.3845C139.545 41.3845 144.504 46.3436 144.504 52.4608C144.504 58.5791 139.545 63.5382 133.427 63.5382C127.31 63.5382 122.35 58.5791 122.35 52.4608Z" fill="#2F2F2F"/>
</svg>
