<svg width="200" height="105" viewBox="0 0 200 105" fill="none" xmlns="http://www.w3.org/2000/svg">
<path opacity="0.6" d="M117.489 46.1709C116.157 46.174 114.844 46.4854 113.652 47.0805L125.323 58.7506C125.915 57.5528 126.22 56.2339 126.216 54.8979C126.217 52.5829 125.298 50.3625 123.661 48.7254C122.024 47.0884 119.804 46.1689 117.489 46.1693V46.1709ZM109.336 59.0735C109.336 59.0735 111.477 61.2157 111.528 61.2604C114.17 63.7548 118.085 64.3416 121.342 62.7312L106.102 47.4866L105.554 46.9398C108.899 41.9107 115.034 39.5135 120.902 40.9427C126.771 42.372 131.117 47.3219 131.775 53.326C132.432 59.33 129.261 65.1035 123.842 67.7695C118.422 70.4354 111.913 69.4235 107.558 65.2379L105.36 63.0509L109.336 59.0735Z" fill="#2F2F2F"/>
<path opacity="0.6" d="M148.509 63.4781C145.362 63.5207 142.437 61.8665 140.851 59.1487C139.266 56.4308 139.266 53.0699 140.851 50.352C142.437 47.6341 145.362 45.98 148.509 46.0225H157.237V54.7511C157.236 59.5711 153.329 63.4781 148.509 63.4781ZM157.237 29.1073V40.4065H148.509C140.586 40.4065 134.164 46.8288 134.164 54.7511C134.164 62.6734 140.586 69.0957 148.509 69.0957C156.431 69.0957 162.853 62.6734 162.853 54.7511V29.1025L157.237 29.1073Z" fill="#2F2F2F"/>
<path opacity="0.6" d="M161.606 73.6963H133.772V75.8992H161.606V73.6963Z" fill="#2F2F2F"/>
<path d="M74.2767 29.1006H68.6543V69.2584H74.2767V29.1006Z" fill="#2F2F2F"/>
<path d="M58.3439 52.0887H46.7474C45.1087 52.0887 43.7803 50.7603 43.7803 49.1216C43.7803 47.483 45.1087 46.1546 46.7474 46.1546H64.0814V40.5369H46.7474C43.6522 40.4947 40.7738 42.1218 39.2139 44.7955C37.654 47.4692 37.654 50.7756 39.2139 53.4494C40.7738 56.1231 43.6522 57.7502 46.7474 57.7079H58.3439C59.9817 57.7079 61.3094 59.0356 61.3094 60.6734C61.3094 62.3112 59.9817 63.6389 58.3439 63.6389H41.0131V69.2565H58.3439C63.039 69.1924 66.8115 65.3681 66.8115 60.6726C66.8115 55.9771 63.039 52.1528 58.3439 52.0887Z" fill="#2F2F2F"/>
<path d="M90.8176 46.1713C92.1522 46.1737 93.4681 46.4851 94.6623 47.0809L82.9922 58.751C81.6524 56.048 81.8065 52.8443 83.3995 50.2824C84.9925 47.7205 87.7976 46.1653 90.8144 46.1713H90.8176ZM98.9674 59.0755C98.9674 59.0755 96.8285 61.2177 96.7773 61.2624C94.1347 63.7543 90.2214 64.3402 86.9649 62.7316L102.201 47.4934L102.751 46.9482C99.4046 41.9235 93.2706 39.5311 87.4055 40.963C81.5405 42.3949 77.199 47.3447 76.5441 53.3464C75.8892 59.3481 79.0609 65.1178 84.4791 67.7809C89.8973 70.444 96.4029 69.4309 100.755 65.2462L102.948 63.0513L98.9674 59.0755Z" fill="#2F2F2F"/>
<path d="M132.527 73.6963H104.693V75.8992H132.527V73.6963Z" fill="#2F2F2F"/>
</svg>
