<svg width="200" height="105" viewBox="0 0 200 105" fill="none" xmlns="http://www.w3.org/2000/svg">
<path fill-rule="evenodd" clip-rule="evenodd" d="M94.0015 25C98.4198 25 102.002 28.5817 102.002 33V73C102.002 77.4183 98.4198 81 94.0015 81H72.152L81.2829 75.729C81.402 75.6599 81.5002 75.5808 81.6179 75.5126C88.2068 71.6913 89.64 62.3573 85.7105 55.5522C82.9485 50.7647 77.9941 48.0322 72.8474 47.8842L72.7541 47.8837L72.8025 47.8029C75.2468 43.2708 75.9537 38.6515 72.592 32.83C69.2312 27.0066 59.7648 22.6166 53.0943 26.4667L43.6098 31.9424L43.6115 31.9453C42.4575 32.613 41.3015 33.2801 40.1467 33.9428L25.4107 42.4498C21.2961 45.2714 18.1185 49.0162 16 53.2355L16.0015 33C16.0015 28.5817 19.5832 25 24.0015 25H94.0015ZM46.2436 77.7096L47.1686 79.3093L47.0365 79.3684L46.8651 79.445L46.6958 79.5195L46.5247 79.5901L46.3535 79.6607L46.1828 79.7295L46.0104 79.7955L45.8373 79.8607L45.6651 79.9222L45.4925 79.9837L45.3193 80.0428L45.1465 80.1002L44.9738 80.1544L44.8002 80.2091L44.6254 80.2604L44.4522 80.3102L44.104 80.4042L43.9292 80.4474L43.7553 80.4902L43.5815 80.5309L43.4064 80.5705L43.2315 80.6057L43.0574 80.6425L42.8833 80.6753L42.708 80.707L42.5334 80.7356L42.3588 80.7637L42.1847 80.7891L40.683 81H40.533L44.9924 78.4309L45.3291 78.2361L46.2436 77.7096ZM36.8585 76.3475L37.2787 76.5832L37.5349 76.7194L37.7949 76.8508L38.0572 76.9761L38.3207 77.0986L38.5885 77.2132L38.8579 77.3245L39.1302 77.4295L39.4036 77.5282L39.6808 77.6234L39.9589 77.7116L40.2405 77.7963L40.5223 77.8744L40.8065 77.9472L41.0929 78.0153L42.1302 78.2388L37.6242 80.8367L37.182 80.7715L36.8604 80.7173L36.541 80.6577L36.2238 80.592L35.9098 80.5187L35.597 80.4406L35.2881 80.3554L34.9802 80.2633L34.6759 80.1652L34.3743 80.0611L34.0755 79.9515L33.7793 79.835L33.4872 79.7119L33.1966 79.5828L32.9112 79.4487L32.1439 79.0663L36.8585 76.3475ZM53.3714 73.5875L52.3136 74.9405L52.204 75.079L52.0929 75.2155L51.9798 75.3512L51.8646 75.4875L51.7495 75.6223L51.6306 75.7563L51.5129 75.8889L51.3911 76.021L51.2687 76.1514L51.1457 76.2806L51.0194 76.4098L50.8927 76.5373L50.7647 76.665L50.6343 76.7897L50.5027 76.915L50.3694 77.0386L50.2346 77.1599L50.0993 77.2832L49.9616 77.4019L49.8234 77.5213L49.682 77.6395L49.5406 77.7562L49.3975 77.8713L49.2525 77.9868L49.1062 78.0996L48.9587 78.2114L48.81 78.3213L48.6601 78.4319L48.5414 78.5154L47.6184 76.9162L48.5341 76.3878L48.8686 76.1929L53.3714 73.5875ZM147.855 54.0044C148.747 54.0044 149.494 54.264 150.095 54.7902C150.695 55.3116 151.141 55.9733 151.429 56.7757L157.974 74.9426C158.085 75.2095 158.16 75.4544 158.19 75.6781C158.226 75.8976 158.241 76.0663 158.241 76.1782C158.241 76.8238 158.012 77.3525 157.555 77.7637C157.1 78.1737 156.56 78.3802 155.936 78.3802C155.227 78.3802 154.686 78.2183 154.318 77.8948C153.953 77.5734 153.679 77.1542 153.501 76.6426L152.524 73.5924C150.978 74.0945 149.344 74.3712 147.663 74.3712C146.103 74.3712 144.59 74.1375 143.154 73.7045L142.215 76.6096C142.036 77.1234 141.765 77.5471 141.397 77.8811C141.029 78.2113 140.498 78.3802 139.81 78.3802C139.144 78.3802 138.564 78.1588 138.074 77.7138C137.585 77.2663 137.341 76.7117 137.341 76.0426C137.341 75.7755 137.369 75.5494 137.422 75.3616C137.478 75.1714 137.529 75.0329 137.576 74.9426L144.284 56.7757C144.575 55.9972 145.029 55.3401 145.655 54.8066C146.277 54.2733 147.012 54.0044 147.855 54.0044ZM129.417 54.1331C129.86 54.1331 130.272 54.2093 130.652 54.3663C131.028 54.5236 131.358 54.726 131.634 54.9663C131.913 55.2139 132.148 55.4854 132.336 55.7877C132.525 56.0878 132.644 56.3926 132.689 56.7044L135.793 75.3401C135.815 75.45 135.827 75.5494 135.827 75.64V75.9073C135.827 76.6426 135.593 77.2233 135.124 77.6616C134.658 78.0923 134.093 78.3114 133.422 78.3114C132.577 78.3114 131.961 78.1141 131.568 77.7287C131.179 77.3354 130.93 76.7544 130.817 75.9708L128.847 62.3806H128.781L124.774 76.3757C124.709 76.5713 124.617 76.7854 124.507 77.0094C124.396 77.2306 124.235 77.4426 124.022 77.6399C123.812 77.8423 123.55 78.0069 123.237 78.126C122.927 78.2496 122.547 78.3114 122.104 78.3114C121.655 78.3114 121.279 78.2496 120.968 78.126C120.657 78.0069 120.396 77.8423 120.184 77.6399C119.972 77.4426 119.81 77.2306 119.698 77.0094C119.59 76.7854 119.499 76.5713 119.433 76.3757L115.426 62.3806H115.36L113.39 75.9708C113.278 76.7544 113.026 77.3354 112.638 77.7287C112.249 78.1141 111.63 78.3114 110.784 78.3114C110.116 78.3114 109.55 78.0923 109.082 77.6616C108.615 77.2233 108.382 76.6426 108.382 75.9073V75.64C108.382 75.5494 108.39 75.45 108.412 75.3401L111.517 56.7044C111.564 56.3926 111.679 56.0878 111.869 55.7877C112.058 55.4854 112.293 55.2139 112.569 54.9663C112.85 54.726 113.177 54.5236 113.555 54.3663C113.934 54.2093 114.343 54.1331 114.791 54.1331C115.636 54.1331 116.36 54.3827 116.962 54.8852C117.563 55.3855 117.95 55.9376 118.129 56.5354L122.069 69.7619H122.137L126.076 56.5354C126.254 55.9376 126.643 55.3855 127.245 54.8852C127.849 54.3827 128.57 54.1331 129.417 54.1331ZM163.003 54.1331C163.717 54.1331 164.31 54.3543 164.791 54.8019C165.268 55.2449 165.509 55.8903 165.509 56.7381V75.7066C165.509 76.552 165.268 77.1947 164.791 77.6399C164.31 78.0899 163.717 78.3114 163.003 78.3114C162.291 78.3114 161.696 78.0899 161.218 77.6399C160.741 77.1947 160.501 76.552 160.501 75.7066V56.7381C160.501 55.8903 160.741 55.2449 161.218 54.8019C161.696 54.3543 162.291 54.1331 163.003 54.1331ZM171.685 54.1331C172.398 54.1331 172.991 54.3543 173.473 54.8019C173.95 55.2449 174.188 55.8903 174.188 56.7381V73.4997H180.134C180.555 73.4997 180.922 73.5736 181.235 73.7187C181.547 73.8664 181.804 74.0522 182.003 74.2901C182.204 74.5187 182.348 74.7785 182.436 75.0566C182.527 75.333 182.558 75.6141 182.538 75.9073C182.515 76.4617 182.291 76.971 181.869 77.4284C181.444 77.8826 180.868 78.1092 180.134 78.1092H171.788C170.965 78.1092 170.321 77.8662 169.865 77.3732C169.41 76.8853 169.179 76.2184 169.179 75.3731V56.7381C169.179 55.8903 169.42 55.2449 169.899 54.8019C170.377 54.3543 170.972 54.1331 171.685 54.1331ZM32.4201 72.1355L32.7168 72.5577L32.8548 72.746L32.9949 72.9321L33.1385 73.1154L33.285 73.2957L33.4337 73.4734L33.5851 73.6485L33.7397 73.8192L33.8967 73.9879L34.0567 74.1537L34.2183 74.3151L34.3831 74.4751L34.5502 74.6311L34.7196 74.7857L34.8918 74.9359L35.3868 75.3537L30.6573 78.0815L30.3001 77.798L30.115 77.6464L29.9318 77.4913L29.7519 77.3311L29.5746 77.1675L29.4002 77.0022L29.2288 76.8337L29.0603 76.6608L28.8955 76.4835L28.7321 76.3043L28.5744 76.1216L28.4171 75.9363L28.266 75.7461L28.1158 75.5537L27.9705 75.3576L27.6379 74.8922L32.4201 72.1355ZM43.3111 72.6278L45.4463 76.3273L44.3756 76.9441L44.1065 76.9407L43.453 76.8999L42.8035 76.8293L42.1598 76.7287L41.5244 76.6L40.8969 76.4391L40.2795 76.2491L39.673 76.0313L39.0786 75.7847L38.3981 75.4601L43.3111 72.6278ZM49.5936 68.9975L49.534 69.7466L49.4505 70.3857L49.336 71.0203L49.1917 71.6501L49.0166 72.2723L48.81 72.8896L48.5773 73.4964L48.3141 74.0946L48.0218 74.6812L47.8902 74.9163L46.8209 75.5341L44.6845 71.8364L49.5936 68.9975ZM40.378 67.5467L42.5136 71.2462L36.8482 74.5115L36.3386 74.1266L35.8456 73.7127L35.3723 73.2732L34.9221 72.8058L34.4945 72.3121L34.0906 71.7912L33.7839 71.3492L40.378 67.5467ZM55.8417 65.3827L55.7899 66.2391L55.7635 66.5539L55.7296 66.8696L55.6893 67.1844L55.6424 67.4979L55.5894 67.8117L55.5271 68.1255L55.4602 68.4383L55.3857 68.7491L55.3035 69.0607L55.2163 69.3703L55.1225 69.6802L55.0214 69.9864L54.9135 70.2926L54.799 70.5981L54.6351 71.0145L50.1318 73.617L50.4551 72.6073L50.5406 72.3255L50.6197 72.043L50.6942 71.7597L50.7611 71.4747L50.8233 71.189L50.8793 70.9019L50.931 70.6147L50.9755 70.3266L51.0153 70.0375L51.0487 69.7481L51.0768 69.459L51.0973 69.1686L51.1127 68.8785L51.123 68.5877L51.1305 68.1069L55.8417 65.3827ZM30.3269 66.571L30.4402 67.21L30.4844 67.4329L30.5323 67.6569L30.5838 67.8798L30.6392 68.1018L30.6983 68.3235L30.7618 68.5452L30.8275 68.7657L30.8993 68.9848L30.974 69.2043L31.0527 69.4219L31.1347 69.6387L31.2219 69.8543L31.3122 70.0694L31.406 70.2838L31.6228 70.7522L26.8404 73.5091L26.605 72.987L26.5091 72.7633L26.4167 72.5357L26.3298 72.3111L26.2473 72.0818L26.1679 71.8525L26.0944 71.6235L26.0246 71.3912L25.9596 71.1585L25.8986 70.9256L25.8424 70.6916L25.7911 70.456L25.7438 70.2196L25.6996 69.9845L25.6625 69.7466L25.5963 69.2978L30.3269 66.571ZM48.3409 62.945L48.5707 63.4314L48.8181 64.0397L49.0325 64.6587L49.211 65.2819L49.3572 65.9119L49.4676 66.5456L49.5455 67.1807L43.8869 70.4538L41.7513 66.7551L48.3409 62.945ZM37.4455 62.4676L39.5797 66.1651L32.9881 69.9657L32.759 69.4805L32.5105 68.8702L32.2978 68.2517L32.119 67.6283L31.9764 66.9976L31.8653 66.3619L31.7882 65.7283L37.4455 62.4676ZM147.892 59.2142H147.826L144.654 68.8996L144.496 69.3997C145.51 69.6996 146.565 69.8591 147.655 69.8591C148.857 69.8591 150.02 69.6639 151.127 69.3021L150.998 68.8996L147.892 59.2142ZM72.453 59.2988C75.9647 59.8604 76.9207 64.3992 74.0976 66.3107C74.0842 66.3202 74.0691 66.33 74.0556 66.3395L74.0581 66.3426C74.041 66.3527 74.0227 66.3651 74.0051 66.3754L73.3629 66.7451L73.2921 66.7858L69.3706 69.0465L65.5413 62.4032L69.5071 60.1168L69.557 60.089C69.7936 59.9532 70.0177 59.8289 70.239 59.7159L70.2414 59.7203C70.2597 59.7115 70.2761 59.7034 70.2944 59.6954C70.9574 59.3767 71.5964 59.2033 72.453 59.2988ZM31.2121 59.289L30.8851 60.299L30.8002 60.5818L30.7201 60.8631L30.6456 61.1471L30.5787 61.4315L30.5152 61.7175L30.4588 62.0032L30.4075 62.2918L30.3623 62.5782L30.3225 62.8671L30.2883 63.156L30.26 63.4468L30.239 63.7357L30.2227 64.026L30.2131 64.3169L30.2041 64.7982L25.4903 67.5155L25.5435 66.6613L25.5711 66.3466L25.6043 66.0308L25.6446 65.7168L25.6922 65.4023L25.7465 65.0883L25.807 64.774L25.8751 64.4622L25.9496 64.1503L26.0322 63.8383L26.1193 63.5296L26.2141 63.2205L26.3159 62.912L26.4246 62.6078L26.5386 62.3018L26.7046 61.8865L31.2121 59.289ZM54.4796 59.3935L54.7162 59.9134L54.8131 60.1398L54.9052 60.3639L54.9933 60.591L55.0756 60.8198L55.1555 61.0474L55.2285 61.2784L55.2993 61.5099L55.365 61.7421L55.426 61.9746L55.482 62.2078L55.535 62.4437L55.5826 62.6796L55.6258 62.9155L55.6649 63.1523L55.7318 63.6026L51.006 66.3358L50.8898 65.697L50.8453 65.4741L50.7977 65.2497L50.7452 65.0272L50.6898 64.8045L50.6307 64.583L50.5667 64.3611L50.4998 64.1413L50.4292 63.9223L50.3535 63.7035L50.2732 63.4864L50.1914 63.27L50.1042 63.0539L50.0141 62.8378L49.9179 62.6244L49.7011 62.1568L54.4796 59.3935ZM44.4713 58.4058L44.9814 58.7894L45.4764 59.2021L45.9501 59.6426L46.4001 60.1097L46.8299 60.6018L47.235 61.1222L47.541 61.5639L40.953 65.373L38.8183 61.6752L44.4713 58.4058ZM34.5111 57.3866L36.647 61.0863L31.7435 63.9122L31.805 63.1604L31.8883 62.5223L32.004 61.8874L32.1508 61.2591L32.3259 60.6362L32.5329 60.0204L32.7688 59.4123L33.0325 58.8158L33.3258 58.229L33.4564 57.9946L34.5111 57.3866ZM50.6556 54.8287L51.0128 55.1102L51.1987 55.2621L51.3808 55.4172L51.561 55.5757L51.739 55.7385L51.9134 55.9046L52.0851 56.0736L52.254 56.2464L52.4203 56.421L52.583 56.6013L52.7414 56.7837L52.8987 56.9697L53.0503 57.1595L53.2003 57.3519L53.3463 57.5472L53.6799 58.0122L48.9038 60.7752L48.6073 60.3527L48.4684 60.1647L48.3287 59.9794L48.1844 59.7957L48.0381 59.6158L47.8894 59.4382L47.7358 59.2646L47.5817 59.0937L47.4238 58.9247L47.2643 58.7596L47.1009 58.5985L46.9371 58.4388L46.7688 58.2822L46.5984 58.1289L46.4258 57.9807L45.9303 57.5629L50.6556 54.8287ZM36.9398 55.9854L37.2079 55.9888L37.8626 56.0274L38.5116 56.097L39.1556 56.1979L39.7919 56.3263L40.419 56.4858L41.0373 56.6723L41.6436 56.8899L42.2382 57.1368L42.9207 57.4593L38.0198 60.2924L35.8842 56.5937L36.9398 55.9854ZM32.792 54.408L33.7141 56.0047L32.8167 56.5219L32.4804 56.7163L27.9808 59.3086L29.0315 57.9628L29.1412 57.8254L29.253 57.6879L29.367 57.5514L29.4818 57.4154L29.5975 57.2816L29.7165 57.1475L29.8354 57.0159L29.9567 56.8833L30.0783 56.7536L30.2029 56.6223L30.3286 56.4943L30.4561 56.3671L30.5848 56.2418L30.7145 56.1156L30.8461 55.9915L30.9799 55.8677L31.1139 55.7459L31.25 55.6245L31.3882 55.5039L31.5264 55.3857L31.6678 55.2673L31.8099 55.1503L31.9532 55.0367L32.0985 54.9208L32.2448 54.8087L32.3937 54.6968L32.5422 54.5865L32.6929 54.4768L32.792 54.408ZM43.6855 52.0833L44.1277 52.1468L44.4495 52.1998L44.768 52.2591L45.0861 52.325L45.4002 52.3976L45.7127 52.475L46.0231 52.5619L46.3315 52.652L46.6343 52.7499L46.9371 52.8542L47.2362 52.9633L47.5324 53.0788L47.8254 53.2022L48.1155 53.3301L48.4012 53.4644L49.1677 53.8451L44.4566 56.5705L44.0356 56.3358L43.78 56.1993L43.5197 56.067L43.2582 55.9415L42.9939 55.8218L42.7256 55.7063L42.4548 55.5959L42.1837 55.4914L41.91 55.3918L41.6333 55.2992L41.3535 55.2094L41.0744 55.1259L40.7906 55.0477L40.5064 54.9757L40.2207 54.9095L39.1822 54.6873L43.6855 52.0833ZM40.8155 51.8984L36.3195 54.499L35.9833 54.6937L35.0871 55.2118L34.1653 53.6148L34.2742 53.5643L34.4444 53.4891L34.6137 53.4146L34.7853 53.3416L34.9565 53.2715L35.1284 53.2036L35.2996 53.1357L35.471 53.0713L35.6436 53.0085L35.8158 52.9472L35.9899 52.8879L36.1628 52.831L36.3364 52.776L36.5093 52.7221L36.6824 52.6706L36.856 52.6203L37.0301 52.5719L37.204 52.5248L37.3783 52.4806L37.5525 52.4378L37.7268 52.3963L38.0762 52.3204L38.2508 52.2855L38.4249 52.2523L38.6003 52.2208L38.7744 52.1907L38.949 52.1624L39.1243 52.1353L40.8155 51.8984ZM154.687 26.68C155.158 26.68 155.763 26.7306 156.508 26.828C157.253 26.933 157.976 27.1064 158.677 27.3615C159.378 27.6211 159.98 27.9593 160.484 28.3776C160.98 28.8018 161.229 29.3495 161.229 30.0137C161.229 30.6637 161.031 31.2378 160.631 31.7374C160.231 32.2375 159.686 32.4878 158.994 32.4878C158.663 32.4878 158.333 32.4404 158.01 32.3376C157.685 32.2375 157.353 32.1235 157.007 31.9852C156.663 31.8522 156.296 31.7374 155.906 31.6402C155.517 31.5354 155.064 31.4876 154.555 31.4876C153.842 31.4876 153.205 31.6712 152.651 32.0353C152.096 32.407 151.817 32.9447 151.817 33.6543C151.817 34.2354 152.087 34.683 152.635 34.9905C153.179 35.302 153.871 35.5809 154.703 35.828C155.539 36.0708 156.436 36.3472 157.392 36.6475C158.349 36.9447 159.243 37.3664 160.078 37.8995C160.915 38.4333 161.602 39.1404 162.152 40.0188C162.697 40.8974 162.968 42.059 162.968 43.5068C162.968 44.7091 162.739 45.7907 162.283 46.7476C161.826 47.7041 161.21 48.5141 160.43 49.1827C159.652 49.852 158.743 50.3614 157.708 50.7208C156.673 51.0712 155.577 51.2546 154.419 51.2546C153.774 51.2546 152.991 51.2041 152.067 51.1022C151.143 51.0016 150.254 50.8187 149.393 50.5523C148.539 50.2832 147.807 49.9069 147.209 49.4166C146.607 48.9304 146.308 48.2899 146.308 47.5139C146.308 46.8663 146.507 46.314 146.908 45.8449C147.312 45.3758 147.855 45.1426 148.544 45.1426C148.944 45.1426 149.357 45.2114 149.779 45.3428C150.201 45.4783 150.647 45.6285 151.114 45.7924C151.581 45.9616 152.074 46.1115 152.584 46.2473C153.096 46.3782 153.62 46.4424 154.153 46.4424C155.267 46.4424 156.114 46.1711 156.691 45.6285C157.269 45.0828 157.559 44.3973 157.559 43.5732C157.559 42.9068 157.286 42.3928 156.741 42.0402C156.196 41.6829 155.505 41.3733 154.671 41.121C153.836 40.8639 152.941 40.6021 151.984 40.3353C151.027 40.0688 150.131 39.7018 149.296 39.2332C148.458 38.7641 147.769 38.14 147.226 37.3664C146.678 36.5853 146.408 35.5499 146.408 34.2591C146.408 33.0755 146.63 32.0209 147.076 31.0854C147.52 30.1521 148.121 29.3614 148.88 28.7136C149.634 28.0687 150.514 27.5689 151.515 27.2163C152.518 26.8571 153.575 26.68 154.687 26.68ZM178.761 26.8783C179.473 26.8783 180.051 27.1186 180.497 27.5972C180.942 28.0758 181.164 28.6494 181.164 29.3187C181.164 29.8735 181.007 30.3736 180.698 30.8212L174.387 39.7018V48.6162C174.387 49.2403 174.192 49.7997 173.804 50.2996C173.415 50.8021 172.77 51.0517 171.884 51.0517C170.991 51.0517 170.352 50.8021 169.962 50.2996C169.574 49.7997 169.379 49.2403 169.379 48.6162V39.7018L163.067 30.8212C162.758 30.3736 162.602 29.8735 162.602 29.3187C162.602 28.6494 162.822 28.0758 163.269 27.5972C163.712 27.1186 164.293 26.8783 165.006 26.8783C165.92 26.8783 166.61 27.2163 167.074 27.8802L171.884 34.8591L176.691 27.8802C177.157 27.2163 177.849 26.8783 178.761 26.8783ZM135.274 26.68C136.165 26.68 136.911 26.9401 137.512 27.4665C138.115 27.9854 138.558 28.6494 138.848 29.4494L145.391 47.6135C145.501 47.8804 145.577 48.1283 145.61 48.35C145.641 48.571 145.659 48.7402 145.659 48.8498C145.659 49.4947 145.431 50.0259 144.977 50.4356C144.52 50.8475 143.978 51.0517 143.355 51.0517C142.644 51.0517 142.103 50.8925 141.734 50.5684C141.369 50.2473 141.095 49.8281 140.918 49.314L139.943 46.2615C138.398 46.7689 136.763 47.0426 135.082 47.0426C133.52 47.0426 132.008 46.8092 130.569 46.3782L129.634 49.2808C129.455 49.7949 129.181 50.2185 128.815 50.5523C128.446 50.8854 127.917 51.0517 127.228 51.0517C126.561 51.0517 125.982 50.8305 125.493 50.3853C125.001 49.9397 124.758 49.3851 124.758 48.7141C124.758 48.4469 124.784 48.2233 124.841 48.0284C124.898 47.8448 124.946 47.7041 124.992 47.6135L131.703 29.4494C131.992 28.6709 132.448 28.0165 133.072 27.481C133.695 26.9445 134.43 26.68 135.274 26.68ZM120.232 27.0783C121.031 27.0783 121.628 27.3186 122.016 27.7969C122.407 28.2782 122.6 28.8018 122.6 29.3851C122.6 29.9636 122.401 30.4923 121.999 30.9687C121.598 31.4497 121.011 31.6878 120.232 31.6878H114.355V36.5638H119.831C120.655 36.5638 121.265 36.8019 121.664 37.2785C122.067 37.7593 122.269 38.2899 122.269 38.864C122.269 39.4452 122.062 39.9734 121.65 40.4495C121.239 40.9308 120.631 41.1684 119.831 41.1684H114.355V46.2473H120.531C121.333 46.2473 121.928 46.4851 122.317 46.9615C122.705 47.4421 122.9 47.9713 122.9 48.5519C122.9 49.126 122.703 49.6569 122.302 50.1357C121.901 50.6117 121.308 50.8493 120.531 50.8493H111.917C111.182 50.8493 110.568 50.6256 110.08 50.1687C109.59 49.714 109.344 49.1045 109.344 48.35V29.9831C109.344 29.1378 109.557 28.4428 109.979 27.8948C110.403 27.3567 111.06 27.0783 111.95 27.0783H120.232ZM59.6205 37.0735C63.1326 37.6347 64.0884 42.1736 61.2656 44.0861C61.2516 44.0939 61.237 44.1049 61.2236 44.114L61.226 44.1169C61.2096 44.1272 61.1906 44.1398 61.1735 44.1501L60.5315 44.5208L60.4602 44.5599L56.5373 46.821L52.709 40.1796L56.6763 37.8923L56.7251 37.864C56.962 37.7267 57.1857 37.6032 57.4062 37.4911L57.4098 37.495C57.4277 37.4852 57.4457 37.4782 57.4623 37.4701C58.126 37.15 58.7651 36.9781 59.6205 37.0735ZM135.311 31.89H135.241L132.071 41.5711L131.913 42.0734C132.929 42.3737 133.984 42.5327 135.075 42.5327C136.279 42.5327 137.436 42.3352 138.544 41.9733L138.414 41.5711L135.311 31.89Z" fill="#2F2F2F"/>
</svg>
