<svg width="200" height="105" viewBox="0 0 200 105" fill="none" xmlns="http://www.w3.org/2000/svg">
<path d="M55.4951 49.2617C55.7147 49.1023 55.9311 48.948 56.1391 48.7883C60.08 45.821 62.7304 41.3396 63.9503 38.9701V30.0563H55.4951V49.2617Z" fill="#2F2F2F"/>
<path d="M69.0186 41.8154C71.1348 43.8268 73.9845 46.323 77.4692 48.8867V26.2377H69.0186V26.461V41.8154Z" fill="#2F2F2F"/>
<path d="M82.5156 52.3271C85.0997 53.9491 87.9176 55.5176 90.9547 56.9209V17.5239H82.5156V52.3271Z" fill="#2F2F2F"/>
<path d="M42 16.0298V56.3496C43.1694 55.8739 46.7495 54.3766 50.4495 52.3682V15.858V15.5058H42V16.0298Z" fill="#2F2F2F"/>
<path d="M96.0225 59.0258C98.7089 60.0144 101.533 60.8437 104.473 61.4609V40.3698H96.0225V59.0258Z" fill="#2F2F2F"/>
<path d="M123.026 61.8643C126.044 61.2727 128.856 60.3683 131.471 59.2231V22.2115H123.026V61.8643Z" fill="#2F2F2F"/>
<path d="M144.982 50.1986V18.0991L144.983 17.8467H136.526V56.6104C139.714 54.6924 142.526 52.4789 144.982 50.1986Z" fill="#2F2F2F"/>
<path d="M150.036 44.8633C154.886 39.1025 157.295 34.1649 157.295 34.1649C157.295 34.1649 157.531 33.6867 157.58 33.399H150.036V44.8633Z" fill="#2F2F2F"/>
<path d="M61.5441 82.8278H60.3921C59.9474 82.8278 59.3166 82.9872 58.9023 83.064V88.1771C59.5289 88.3611 60.5277 88.4885 61.4402 88.4885C63.282 88.4885 64.2753 87.4377 64.2753 85.6979C64.2753 83.644 63.4352 82.8278 61.5441 82.8278ZM61.9077 91.5517C60.6547 91.5517 59.6327 91.3326 58.9023 90.9398V97.9473H57.479C56.4841 97.9473 55.3076 97.2834 55.3076 95.3629V80.6213C56.3037 80.2488 58.6929 79.7748 59.9764 79.7748H61.9972C65.485 79.7748 67.9795 81.771 67.9795 85.3805C67.9795 89.2005 65.3507 91.5517 61.9077 91.5517" fill="#2F2F2F"/>
<path d="M75.841 86.5709C73.8212 86.5709 72.8021 88.2526 72.8021 90.6009C72.8021 93.4187 73.8212 95.0976 76.1556 95.0976C78.197 95.0976 79.1987 93.4187 79.1987 91.0967C79.1987 88.2526 78.1509 86.5709 75.841 86.5709ZM76.1556 83.4106C80.4014 83.4106 82.8438 86.8377 82.8438 90.6009C82.8438 94.8658 80.4014 98.2607 75.841 98.2607C71.5823 98.2607 69.1514 94.8658 69.1514 91.0967C69.1514 86.8377 71.5823 83.4106 76.1556 83.4106" fill="#2F2F2F"/>
<path d="M89.9549 98.0752C87.0432 98.0752 85.4668 96.527 85.4668 93.6538V78.9882H86.4629C88.2183 78.9882 88.9805 80.0116 88.9805 81.3611V93.3075C88.9805 94.7325 89.708 95.176 91.368 95.176H92.312V95.9445C92.312 97.4738 91.4953 98.0752 89.9549 98.0752Z" fill="#2F2F2F"/>
<path d="M98.2354 98.0752C95.3294 98.0752 93.7529 96.527 93.7529 93.6538V78.9882H94.7521C96.5044 78.9882 97.2638 80.0116 97.2638 81.3611V93.3075C97.2638 94.7325 97.9956 95.176 99.6573 95.176H100.602V95.9445C100.602 97.4738 99.7856 98.0752 98.2354 98.0752Z" fill="#2F2F2F"/>
<path d="M110.011 82.1445C109.468 81.9619 108.831 81.8317 107.965 81.8317C106.526 81.8317 105.446 82.3299 105.446 84.2233V85.4903H109.494V86.4687C109.494 87.7284 108.157 88.4709 106.97 88.4709H105.446V97.9482H104.037C102.908 97.9482 101.909 97.0755 101.909 95.8376V83.9333C101.909 81.9328 103.304 78.7222 107.415 78.7222C108.945 78.7222 110.118 79.5701 110.118 80.9603V82.1445H110.011Z" fill="#2F2F2F"/>
<path d="M115.966 98.0752C113.239 98.0752 111.747 96.527 111.747 93.6538V84.037H112.743C114.323 84.037 115.26 84.8838 115.26 86.674V93.3075C115.26 94.7325 115.864 95.176 117.411 95.176H118.071V95.9445C118.071 97.4738 117.462 98.0752 115.966 98.0752ZM113.479 82.7282C112.347 82.7282 111.434 81.7712 111.434 80.6421C111.434 79.5144 112.347 78.5922 113.479 78.5922C114.605 78.5922 115.552 79.5144 115.552 80.6421C115.552 81.7712 114.605 82.7282 113.479 82.7282Z" fill="#2F2F2F"/>
<path d="M124.045 98.2617C121.444 98.2617 119.507 96.9252 119.507 95.4665V93.8694H119.637C120.396 94.5751 122.21 95.2116 123.892 95.2116C125.62 95.2116 126.462 94.7026 126.462 93.6546C126.462 92.8429 125.963 92.4399 123.523 92.1035C120.534 91.6833 119.085 90.4948 119.085 88.3375C119.085 85.6732 121.478 83.4116 125.093 83.4116C128.292 83.4116 129.601 85.0669 129.601 86.4385V87.7838H129.479C128.74 87.0473 127.109 86.4688 125.437 86.4688C123.295 86.4688 122.605 87.1242 122.605 88.0419C122.605 88.7535 123.026 89.0449 125.437 89.4406C128.372 89.9148 129.948 91.2062 129.948 93.4692C129.948 96.4727 127.845 98.2617 124.045 98.2617Z" fill="#2F2F2F"/>
<path d="M143.849 97.9482C142.382 97.9482 141.458 97.1074 141.458 95.5781V89.784C141.458 87.463 140.202 86.5456 138.652 86.5456C137.549 86.5456 136.113 87.3864 136.113 89.8942V97.9482H134.959C133.299 97.9482 132.538 97.0175 132.538 95.5781V78.9887H133.646C135.317 78.9887 136.14 79.9295 136.14 81.2457V85.3049C136.66 84.47 137.861 83.4112 139.208 83.4112C142.85 83.4112 145.004 85.5889 145.004 89.6245V97.9482H143.849Z" fill="#2F2F2F"/>
<path d="M109.544 6.00013C109.532 6.0007 109.523 6.00154 109.512 6.00296V62.276C111.022 62.4498 112.558 62.5716 114.123 62.6151C115.439 62.6499 116.712 62.6049 117.968 62.5207V6.00013H109.544Z" fill="#2F2F2F"/>
</svg>
