<svg width="200" height="105" viewBox="0 0 200 105" fill="none" xmlns="http://www.w3.org/2000/svg">
<path d="M84.2068 33.2376L92.4658 25.003L93.7189 26.2585L90.2644 29.7154L95.487 34.9539L96.431 37.2055L94.1961 36.2912L88.9341 31.0467L85.4811 34.4991L84.2068 33.2376ZM107.685 26.2585L108.957 25L117.2 33.2376L115.92 34.4961L112.47 31.0482L107.213 36.2867L104.976 37.207L105.919 34.9524L111.14 29.7139L107.685 26.2585ZM95.4204 26.166L100.702 31.4333L105.972 26.1645L107.716 27.9066L103.034 39.1948L107.466 37.4314L114.384 34.5794L116.022 36.2139L110.754 41.4873L116.02 46.7607L114.281 48.5059L102.991 43.8086L107.608 55.1803L105.97 56.8056L100.702 51.5383L95.4279 56.8026L93.7992 55.1818L98.4097 43.8086L87.1265 48.5059L85.3765 46.7501L90.6522 41.4828L85.3765 36.2094L87.0189 34.5779L98.3688 39.1963L93.687 27.9096L95.4204 26.166ZM98.0567 34.0852L99.3476 32.7827L96.034 29.2393L98.0567 34.0852ZM103.345 34.0852L105.369 29.2378L102.057 32.7842L103.345 34.0852ZM100.696 40.4987L102.554 35.9865L100.702 34.1397L98.8461 35.9986L100.696 40.4987ZM91.9022 40.2304L93.1977 38.9477L88.3341 36.8932L91.9022 40.2304ZM109.497 40.2349L113.079 36.8902L108.205 38.9492L109.497 40.2349ZM93.2643 41.6041L95.0779 43.4008L99.4521 41.6041L99.44 41.501L95.1204 39.7255L93.2643 41.6041ZM106.328 43.4023L108.146 41.5874L106.285 39.7255L101.895 41.5267L106.328 43.4023ZM100.701 49.032L102.519 47.2201L100.702 42.7776L98.8855 47.2247L100.701 49.032ZM93.287 44.127L92.0022 42.8413L88.4568 46.1618L93.287 44.127ZM112.893 46.1163L109.404 42.8367L108.111 44.1255L112.893 46.1163ZM96.1294 53.8248L99.4552 50.2829L98.1628 48.982L96.1294 53.8248ZM101.954 50.2874L105.267 53.8141L103.24 48.988L101.954 50.2874ZM104.975 45.7676L107.29 46.7546L112.466 51.9189L115.826 48.5453L117.194 49.7401L108.954 57.9731L107.681 56.7101L111.131 53.2592L105.913 48.0131L104.975 45.7676ZM94.1083 46.7501L96.4234 45.7691L95.4385 48.0783L90.2689 53.2638L93.7234 56.7101L92.4477 57.9777L84.2068 49.737L85.4841 48.4755L88.9341 51.9234L94.1083 46.7501ZM27.8377 67.5556C30.0922 67.0977 32.4831 67.5844 34.4695 68.7125C34.227 69.2022 33.9876 69.6919 33.7483 70.1832C32.0862 69.137 30.0134 68.6715 28.0847 69.1249C27.262 69.3462 26.2877 69.8648 26.2089 70.817C26.1286 71.5311 26.7226 72.1164 27.3574 72.3256C29.3589 73.017 31.5437 72.6304 33.5558 73.2778C34.4725 73.5598 35.321 74.1132 35.8634 74.9153C36.7043 76.1556 36.5891 77.9401 35.6285 79.0849C34.8513 80.0189 33.7043 80.5844 32.5286 80.824C29.5225 81.3744 26.2892 80.6254 23.8968 78.6983C24.2211 78.2206 24.5377 77.7385 24.868 77.2654C26.5317 78.5542 28.565 79.4579 30.6953 79.4746C31.9013 79.4579 33.2013 79.1728 34.0695 78.2752C34.7634 77.5793 34.9073 76.3496 34.2513 75.5809C33.618 74.8349 32.6089 74.5848 31.6755 74.4938C30.1044 74.3816 28.515 74.3043 26.9832 73.904C25.8802 73.6235 24.8393 72.8244 24.5514 71.6842C24.3923 70.8837 24.4908 70.0058 24.9635 69.3235C25.6195 68.3637 26.7241 67.7967 27.8377 67.5556ZM93.6674 67.5465C95.9082 67.1053 98.2809 67.5905 100.257 68.7094C100.02 69.2007 99.7824 69.6919 99.54 70.1802C97.9552 69.1901 96.0204 68.7291 94.1673 69.0551C93.4174 69.2158 92.6264 69.5358 92.1931 70.2029C91.7962 70.8155 92.0219 71.6918 92.6401 72.0694C93.4825 72.5909 94.5098 72.641 95.4673 72.7668C97.0476 72.879 98.7082 72.8851 100.16 73.6098C101.326 74.1905 102.234 75.3975 102.205 76.7363C102.258 77.7749 101.805 78.8074 101.032 79.4943C99.8097 80.6193 98.087 81.0317 96.4613 80.9802C94.0234 81.062 91.5962 80.2069 89.6871 78.6998C90.0083 78.2206 90.3295 77.743 90.6522 77.2654C92.3158 78.5421 94.334 79.4518 96.4582 79.4746C97.6628 79.4624 98.9628 79.1834 99.8385 78.298C100.425 77.7233 100.616 76.7954 100.319 76.0358C99.9658 75.2216 99.093 74.7925 98.2688 74.6166C97.1673 74.4013 96.04 74.4422 94.931 74.2846C93.6022 74.1102 92.1204 73.9752 91.1098 72.9882C90.1219 72.08 89.9977 70.4652 90.7295 69.3629C91.3856 68.3652 92.5249 67.7891 93.6674 67.5465ZM179.176 67.8043C181.632 66.9491 184.404 67.4601 186.638 68.7049C186.41 69.2022 186.165 69.6919 185.922 70.1817C184.359 69.1977 182.451 68.7443 180.62 69.0415C179.904 69.1855 179.166 69.4675 178.689 70.0452C178.315 70.494 178.263 71.2021 178.623 71.6751C178.933 72.1255 179.47 72.3286 179.977 72.4666C181.962 72.9867 184.089 72.6501 186.03 73.3809C187.192 73.8069 188.227 74.7531 188.51 75.9903C188.675 76.9319 188.591 77.9644 188.036 78.771C187.148 80.0871 185.572 80.7558 184.041 80.9362C182.479 81.0575 180.88 80.9817 179.383 80.4813C178.183 80.0962 177.073 79.4685 176.076 78.7028C176.392 78.2191 176.717 77.7415 177.041 77.2624C178.363 78.2722 179.885 79.0697 181.538 79.3457C182.8 79.5822 184.162 79.5125 185.329 78.9424C186.126 78.5557 186.838 77.8052 186.841 76.8712C186.918 76.0494 186.36 75.3141 185.65 74.9684C184.444 74.3422 183.044 74.5135 181.742 74.327C180.404 74.1617 178.945 74.0874 177.818 73.2641C176.906 72.6198 176.442 71.4128 176.72 70.3257C176.968 69.0915 178.05 68.2258 179.176 67.8043ZM11.003 67.6663L23.5423 67.6708L23.5453 69.2098L18.0893 69.2158V80.6602L16.4227 80.6618L16.4196 69.2113L11 69.2143L11.003 67.6663ZM44.2921 67.6678L50.7254 80.6572L48.9269 80.6618L47.1648 77.176L40.0588 77.1745L38.3452 80.6602L36.5664 80.6557L42.9209 67.6693L44.2921 67.6678ZM40.8073 75.6234L46.439 75.6294L43.6163 69.9679L40.8073 75.6234ZM52.1541 67.6496L53.8208 67.6511L53.8193 74.0738L61.1904 67.6496L63.3631 67.6557L58.1253 72.2725L64.1586 80.6602L62.1555 80.6648L56.9253 73.4355L53.8253 76.0358L53.8208 80.6602L52.1541 80.6618V67.6496ZM66.0904 67.6011L67.7797 67.6026L67.7782 80.6602L66.0934 80.6618L66.0904 67.6011ZM78.5842 67.6678C79.7675 67.6723 81.0357 68.0408 81.8099 68.9899C82.5462 69.8633 82.6387 71.0869 82.4614 72.1725C82.1766 73.6023 80.9326 74.7531 79.4948 74.9623C80.2079 76.2299 81.2846 78.1277 82.725 80.6557L80.8917 80.6633L77.6539 75.0078L72.6645 75.0093L72.663 80.6618L71.0206 80.6602L71.0221 67.6708C74.3827 67.6688 76.9034 67.6678 78.5842 67.6678ZM72.6645 69.2143V73.4294C75.2251 73.4284 77.1458 73.4284 78.4266 73.4294C79.0781 73.4415 79.7796 73.2945 80.2675 72.8335C80.8796 72.218 80.925 71.2218 80.6538 70.4379C80.3432 69.6116 79.4281 69.2113 78.5933 69.2189C77.2761 69.2118 75.2999 69.2103 72.6645 69.2143ZM85.4538 80.6602L85.4523 67.6011H87.1447L87.1432 80.6602H85.4538ZM110.163 67.6708H111.699L116.908 75.5688L122.152 67.6708H123.667L123.669 80.6602L122.026 80.6618L122.031 70.585L116.908 78.2343L111.787 70.588L111.791 80.6618L110.161 80.6602L110.163 67.6708ZM132.699 67.6602L139.147 80.6618L137.34 80.6633L135.578 77.1745L128.465 77.176L126.75 80.6633H124.976L131.341 67.6678L132.699 67.6602ZM132.02 69.9694L129.225 75.6234L134.849 75.6219L132.02 69.9694ZM140.152 67.6708L141.815 67.6693L141.817 79.1395L150.243 79.138L150.244 80.6618L140.15 80.6602L140.152 67.6708ZM151.762 67.6678L153.397 67.6708L153.399 79.1228L161.024 79.1258L160.267 80.6633L151.762 80.6618V67.6678ZM169.456 67.6678L175.886 80.6572L174.085 80.6602L172.332 77.176L165.221 77.1745L163.506 80.6602L161.729 80.6572L168.079 67.6723L169.456 67.6678ZM165.971 75.6264L171.597 75.631L168.777 69.9649L165.971 75.6264Z" fill="#2F2F2F"/>
</svg>
