<svg width="200" height="105" viewBox="0 0 200 105" fill="none" xmlns="http://www.w3.org/2000/svg">
<path fill-rule="evenodd" clip-rule="evenodd" d="M1 62.0035H4.8079C4.82534 63.3246 5.3566 63.4271 6.45432 63.4271H11.1194C11.9255 63.4271 12.7487 63.342 12.7487 62.3811C12.7487 61.3005 12.3031 61.232 7.3975 61.232C1.66928 61.232 1.01744 60.5459 1.01744 57.4926C1.01744 55.2458 1.22309 53.5137 6.02558 53.5137H11.3425C15.7337 53.5137 16.145 55.0056 16.145 57.1839V57.5783H12.3368C12.3368 56.6691 12.2343 56.2921 10.485 56.2921H6.26551C5.40771 56.2921 4.82504 56.5834 4.82504 57.2524C4.82504 58.333 5.28805 58.3676 9.36985 58.3501C15.2869 58.3327 16.6594 58.6932 16.6594 62.3123C16.6594 65.6568 15.5277 66.2055 10.4679 66.2055H5.8539C2.38906 66.2058 1 65.554 1 62.8613V62.0035Z" fill="#2F2F2F"/>
<path fill-rule="evenodd" clip-rule="evenodd" d="M17.1846 53.6504H20.9062L23.5475 62.7752H23.5821L26.7378 53.6504H30.2709L33.4273 62.7752H33.4612L36.1026 53.6504H39.8248L35.7938 66.0684H31.4207L28.5217 57.8699H28.4877L25.5887 66.0684H21.2149L17.1846 53.6504Z" fill="#2F2F2F"/>
<path fill-rule="evenodd" clip-rule="evenodd" d="M44.3636 61.1973H49.2346L46.7644 56.5322L44.3636 61.1973ZM44.2944 53.6504H49.2517L56.078 66.0684H51.8413L50.6582 63.8729H42.9402L41.8248 66.0684H37.5713L44.2944 53.6504Z" fill="#2F2F2F"/>
<path fill-rule="evenodd" clip-rule="evenodd" d="M53.4443 53.6504H67.9543V56.7376H62.6031V66.0684H58.7955V56.7376H53.4443V53.6504Z" fill="#2F2F2F"/>
<path fill-rule="evenodd" clip-rule="evenodd" d="M68.9153 58.0074C68.9153 54.3715 70.9559 53.5137 74.3868 53.5137H78.8631C84.2828 53.5137 84.9864 54.6799 84.9524 58.1959H81.1445V57.8528C81.1445 56.9605 80.4924 56.704 79.3607 56.704H75.21C73.2031 56.704 72.8255 57.6469 72.8255 59.1908V60.5287C72.8255 62.33 73.2031 63.0155 75.0038 63.0155H79.069C80.784 63.0155 81.2984 62.8438 81.2984 61.3005H85.1063V62.4668C85.1063 64.5594 84.3511 66.2058 80.5263 66.2058H74.3865C70.9556 66.2058 68.915 65.3487 68.915 61.7121V58.0074" fill="#2F2F2F"/>
<path fill-rule="evenodd" clip-rule="evenodd" d="M86.9756 53.6504H90.7829V58.0755H98.8103V53.6504H102.618V66.0684H98.8103V61.3687H90.7829V66.0684H86.9756V53.6504Z" fill="#2F2F2F"/>
<path fill-rule="evenodd" clip-rule="evenodd" d="M112.531 58.0074C112.531 54.3715 114.572 53.5137 118.003 53.5137H123.731C128.054 53.5137 128.653 55.0744 128.653 57.4926V57.8868H124.915C124.915 56.652 124.212 56.4977 122.993 56.4977H118.86C116.939 56.4977 116.441 56.9608 116.441 59.0877V60.6316C116.441 62.7588 116.939 63.2215 118.86 63.2215H122.925C123.92 63.2215 124.915 63.0672 124.915 61.8664V61.5059H120.18V58.9334H128.722V62.4668C128.722 66.0348 126.87 66.2058 122.582 66.2058H118.003C114.572 66.2058 112.531 65.3487 112.531 61.7121V58.0074Z" fill="#2F2F2F"/>
<path fill-rule="evenodd" clip-rule="evenodd" d="M134.398 59.7562H140.693C141.722 59.7562 142.1 59.3446 142.1 58.4529V58.0413C142.1 56.9436 141.551 56.7376 140.35 56.7376H134.398V59.7562ZM130.591 53.6504H142.082C145.015 53.6504 145.804 55.1086 145.804 57.338V58.1273C145.804 59.7911 145.427 60.7686 143.677 61.1802V61.2148C144.809 61.4201 145.752 61.9177 145.752 63.9589V66.0687H141.945V64.5768C141.945 63.2731 141.568 62.8441 140.384 62.8441H134.398V66.0687H130.591V53.6504Z" fill="#2F2F2F"/>
<path fill-rule="evenodd" clip-rule="evenodd" d="M151.586 60.5287C151.586 62.33 151.963 63.0155 153.764 63.0155H158.635C160.436 63.0155 160.813 62.3297 160.813 60.5287V59.1908C160.813 57.6469 160.436 56.704 158.43 56.704H153.969C151.963 56.704 151.586 57.6469 151.586 59.1908V60.5287ZM147.675 58.0074C147.675 54.3715 149.717 53.5137 153.146 53.5137H159.253C162.683 53.5137 164.724 54.3715 164.724 58.0074V61.7121C164.724 65.3484 162.683 66.2058 159.253 66.2058H153.146C149.717 66.2058 147.675 65.3487 147.675 61.7121V58.0074Z" fill="#2F2F2F"/>
<path fill-rule="evenodd" clip-rule="evenodd" d="M166.594 53.6504H170.4V60.8203C170.4 62.3982 170.967 63.0154 172.528 63.0154H176.301C177.862 63.0154 178.428 62.3982 178.428 60.8203V53.6504H182.236V61.6435C182.236 64.7307 180.641 66.2058 177.142 66.2058H171.687C168.188 66.2058 166.594 64.731 166.594 61.6435V53.6504" fill="#2F2F2F"/>
<path fill-rule="evenodd" clip-rule="evenodd" d="M188.187 59.8594H194.104C194.996 59.8594 195.339 59.2764 195.339 58.5389V58.0587C195.339 57.2184 194.927 56.7376 193.779 56.7376H188.187V59.8594ZM184.379 53.6504H194.755C198.375 53.6504 199.25 55.4688 199.25 57.9039V58.9676C199.25 60.82 198.444 62.9466 195.751 62.9466H188.186V66.0684H184.379V53.6504Z" fill="#2F2F2F"/>
<path fill-rule="evenodd" clip-rule="evenodd" d="M158.996 45.7655H156.651V43.4198H158.996V41.0734H160.469C159.441 39.7603 157.841 38.915 156.043 38.915C152.939 38.915 150.423 41.4318 150.423 44.5352C150.423 47.6393 152.94 50.1554 156.043 50.1554C157.789 50.1554 159.348 49.3598 160.379 48.1115H158.996V45.7655Z" fill="#2F2F2F" fill-opacity="0.7"/>
<path fill-rule="evenodd" clip-rule="evenodd" d="M123.583 43.5928H125.413C124.996 41.3934 123.065 39.7295 120.744 39.7295C118.117 39.7295 115.988 41.8585 115.988 44.4855C115.988 47.1115 118.117 49.2405 120.744 49.2405C123.033 49.2405 124.943 47.6229 125.396 45.4693H123.583V43.5928Z" fill="#2F2F2F" fill-opacity="0.7"/>
<path fill-rule="evenodd" clip-rule="evenodd" d="M97.3097 43.6524H98.3985C97.9942 41.9344 96.4555 40.6543 94.6142 40.6543C92.4655 40.6543 90.7236 42.3962 90.7236 44.5448C90.7236 46.6937 92.4659 48.436 94.6142 48.436C96.4228 48.436 97.9382 47.2005 98.3746 45.529H97.31V43.6524" fill="#2F2F2F" fill-opacity="0.7"/>
<path fill-rule="evenodd" clip-rule="evenodd" d="M192.926 43.0185V40.0862H189.993V43.0185H187.06V45.9512H189.993V48.8839H192.926V45.9512H195.858V43.0185H192.926ZM184.975 44.485C184.975 40.9036 187.877 38 191.459 38C195.04 38 197.944 40.9036 197.944 44.485C197.944 48.0662 195.04 50.9697 191.459 50.9697C187.877 50.9697 184.975 48.0662 184.975 44.485Z" fill="#2F2F2F" fill-opacity="0.7"/>
</svg>
