<svg width="131" height="126" viewBox="0 0 131 126" fill="none" xmlns="http://www.w3.org/2000/svg">
<path opacity="0.6" fill-rule="evenodd" clip-rule="evenodd" d="M103.949 69.7821C104.311 68.6061 104.623 67.4168 104.883 66.2166C105.817 66.5136 106.429 66.877 106.658 67.1629C106.46 67.7484 105.584 68.7841 103.949 69.7821ZM110.786 54.4764C109.206 53.9683 107.502 53.6158 105.718 53.4133C105.577 51.7289 105.339 50.0465 104.999 48.3748C103.694 41.9562 94.7347 41.1226 88.109 41.054C83.8697 41.0101 78.9613 41.3262 73.6887 41.9637C73.5904 40.4588 73.2431 38.9577 72.6492 37.5427C72.6231 37.4805 72.596 37.419 72.5672 37.3577L72.1242 36.4156C72.0745 36.3098 72.021 36.206 71.9637 36.1039C71.7683 35.7567 71.5607 35.4068 71.3285 35.0344C71.2685 34.9381 71.2053 34.844 71.1384 34.7522L70.057 33.2626C70.0223 33.2141 69.9862 33.1665 69.9494 33.1198C69.3324 32.3329 68.8999 31.6895 68.4081 30.9134L68.2988 30.7343C68.1186 30.44 67.9488 30.162 67.8497 29.9649C67.8068 29.8798 67.7617 29.7961 67.714 29.7138C67.5935 29.5056 67.463 29.2157 67.3119 28.8794L67.2797 28.8078C67.0336 28.2657 66.8439 27.7033 66.703 27.1013C66.596 26.6376 66.5345 26.1372 66.5197 25.6126C66.5153 25.0846 66.5426 24.5994 66.5989 24.2043C66.7095 23.507 66.7984 23.0703 66.8551 22.8216L67.2324 21.2641C67.7426 19.1579 66.7822 16.9707 64.8863 15.9206C63.6371 15.2289 62.1854 15.1433 60.9066 15.6087C60.2444 15.8498 59.6288 16.2384 59.1121 16.7673L58.8059 17.0809C58.7841 17.1035 58.6981 17.1949 58.6981 17.1949C58.4592 17.4485 58.0596 17.8733 57.6227 18.4526C57.1545 19.067 56.6573 19.7567 56.1823 20.6412C55.9584 21.0301 55.7944 21.3862 55.6598 21.6779C55.6171 21.7707 55.5735 21.8657 55.5266 21.962C55.4728 22.0714 55.4231 22.1834 55.378 22.2968C55.1339 22.9088 54.9361 23.4872 54.7721 24.0642C54.7664 24.0851 54.7607 24.1059 54.755 24.1268C54.3861 25.4982 54.1997 26.9047 54.1954 28.3114C54.1831 28.3237 54.1692 28.3342 54.1571 28.3469L53.9689 28.54C53.9452 28.564 53.8724 28.6417 53.8724 28.6417C53.7013 28.8228 53.3839 29.161 53.0439 29.6115C52.8185 29.907 52.3547 30.5149 51.9241 31.3218C51.4556 32.1708 51.0949 33.0646 50.8518 33.9785C50.5424 35.123 50.3952 36.2761 50.4146 37.413C50.4375 38.6391 50.6184 39.8371 50.9519 40.9747C51.1082 41.5458 51.3031 42.1056 51.5319 42.6414C51.768 43.2507 52.0371 43.7753 52.2751 44.2152C52.553 44.7478 52.8632 45.2578 53.1651 45.7168C47.661 47.0539 42.4795 48.5918 37.9234 50.2501C36.2535 50.8579 34.7033 51.4662 33.2716 52.0761C23.2485 56.3484 19.0199 60.7145 20.0253 65.6572C20.0257 65.6591 20.0261 65.6613 20.0265 65.6633C22.1239 75.9667 27.7474 84.967 35.9896 91.3205C35.2011 91.7867 34.4671 92.2543 33.7979 92.7209C28.993 96.0702 26.9437 99.6725 27.7076 103.428C28.0601 105.161 29.2121 107.591 32.707 109.33C41.0211 113.448 59.0162 111.858 73.0849 108.997C80.1072 107.568 86.9125 105.687 92.7655 103.557C98.7442 101.381 106.654 97.8751 110.39 93.5252C112.923 90.566 113.034 87.8786 112.682 86.1453C112.237 83.9591 110.962 82.3599 109.284 81.1831C114.934 78.469 119.025 74.4659 120.483 70.0988C121.13 68.1475 121.261 66.1899 120.873 64.2801C119.965 59.8194 116.289 56.2464 110.786 54.4764Z" fill="black"/>
<path fill-rule="evenodd" clip-rule="evenodd" d="M101.416 69.1024C101.778 67.9264 102.089 66.7371 102.35 65.537C103.283 65.834 103.896 66.1977 104.124 66.4833C103.927 67.0687 103.051 68.1044 101.416 69.1024ZM108.252 53.7968C106.673 53.2886 104.968 52.9364 103.185 52.734C103.044 51.0492 102.806 49.367 102.466 47.6951C101.161 41.2766 92.2015 40.4429 85.5758 40.3743C81.3366 40.3307 76.4281 40.6466 71.1555 41.2841C71.0573 39.7794 70.7096 38.2782 70.116 36.863C70.0899 36.8008 70.0625 36.7394 70.0337 36.6782L69.591 35.736C69.5413 35.6301 69.4878 35.5263 69.4305 35.4242C69.2351 35.077 69.0275 34.7271 68.795 34.3548C68.7353 34.2584 68.6721 34.1643 68.6052 34.0726L67.5238 32.5829C67.4888 32.5345 67.4527 32.4869 67.4162 32.4401C66.7989 31.6533 66.3664 31.01 65.8749 30.2338L65.7653 30.0547C65.5854 29.7603 65.4153 29.4825 65.3162 29.2853C65.2736 29.2001 65.2285 29.1164 65.1808 29.0341C65.06 28.8261 64.9298 28.536 64.7787 28.1997L64.7462 28.1282C64.5001 27.5861 64.3104 27.0237 64.1698 26.4217C64.0628 25.9579 64.0013 25.4576 63.9862 24.9331C63.9818 24.405 64.0094 23.9197 64.0657 23.5246C64.176 22.8274 64.2649 22.3907 64.3219 22.1419L64.6989 20.5845C65.2091 18.4784 64.2487 16.2911 62.3531 15.2409C61.1039 14.5492 59.6519 14.4637 58.3731 14.9292C57.7112 15.1701 57.0953 15.5588 56.5789 16.0876L56.2727 16.4012C56.2505 16.4239 56.1646 16.5153 56.1646 16.5153C55.926 16.7688 55.5264 17.1936 55.0892 17.7731C54.6213 18.3873 54.1238 19.0771 53.6488 19.9617C53.4252 20.3504 53.2609 20.7066 53.1263 20.9983C53.0836 21.0911 53.0403 21.1861 52.9934 21.2824C52.9393 21.3918 52.8899 21.5037 52.8448 21.6171C52.6004 22.2292 52.4025 22.8076 52.2389 23.3845C52.2329 23.4055 52.2272 23.4264 52.2218 23.4471C51.8526 24.8186 51.6663 26.2254 51.6622 27.6317C51.6497 27.6444 51.6361 27.6549 51.6236 27.6673L51.4354 27.8604C51.412 27.8843 51.3389 27.9621 51.3389 27.9621C51.1681 28.1431 50.8507 28.4813 50.5106 28.9318C50.2852 29.2273 49.8215 29.8352 49.3906 30.6422C48.9221 31.4913 48.5617 32.3849 48.3186 33.2988C48.0092 34.4433 47.8617 35.5965 47.8814 36.7333C47.9043 37.9594 48.0849 39.1575 48.4187 40.295C48.575 40.8661 48.7698 41.4259 48.9984 41.9618C49.2348 42.571 49.5036 43.0957 49.7419 43.5355C50.0199 44.0684 50.33 44.5781 50.632 45.0374C45.1279 46.3745 39.9463 47.9121 35.3902 49.5704C33.7203 50.1782 32.1702 50.7868 30.7382 51.3968C20.7154 55.669 16.4867 60.0349 17.4918 64.9776C17.4923 64.9798 17.4929 64.9816 17.4934 64.9839C19.5904 75.2871 25.2143 84.2876 33.4565 90.6411C32.668 91.1073 31.934 91.5749 31.2647 92.0412C26.4595 95.3906 24.4104 98.9928 25.1744 102.749C25.5269 104.482 26.6789 106.911 30.1738 108.65C38.4879 112.769 56.483 111.179 70.5514 108.317C77.5737 106.889 84.3793 105.007 90.2323 102.877C96.211 100.701 104.121 97.1954 107.857 92.8455C110.389 89.8864 110.501 87.1991 110.148 85.4657C109.704 83.2797 108.429 81.6806 106.751 80.5037C112.401 77.7896 116.492 73.7862 117.949 69.4191C118.597 67.4679 118.728 65.5103 118.339 63.6004C117.432 59.1398 113.755 55.5668 108.252 53.7968Z" fill="white"/>
<path fill-rule="evenodd" clip-rule="evenodd" d="M108.692 68.0032C107.552 71.4188 102.89 74.6769 96.8522 75.9051C90.8143 77.1332 85.2503 75.955 82.8671 73.2557C82.2921 72.6027 81.9003 71.8603 81.7348 71.0463C80.8797 66.8422 86.2583 62.1924 93.7531 60.6682C101.248 59.1435 108.016 61.323 108.871 65.5268C109.036 66.3411 108.966 67.1774 108.692 68.0032ZM93.2103 57.9994C83.0903 60.0577 75.8282 66.3362 76.9828 72.0127C77.2063 73.1118 77.7354 74.1141 78.5117 74.9963C81.7295 78.6406 89.2424 80.2319 97.3949 78.5735C105.548 76.9153 111.843 72.516 113.381 67.9041C113.751 66.789 113.846 65.6599 113.623 64.5605C112.468 58.884 103.331 55.9413 93.2103 57.9994Z" fill="#00C2FF"/>
<path fill-rule="evenodd" clip-rule="evenodd" d="M108.692 68.0032C107.552 71.4188 102.89 74.6769 96.8522 75.9051C90.8143 77.1332 85.2503 75.955 82.8671 73.2557C82.2921 72.6027 81.9003 71.8603 81.7348 71.0463C80.8797 66.8422 86.2583 62.1924 93.7531 60.6682C101.248 59.1435 108.016 61.323 108.871 65.5268C109.036 66.3411 108.966 67.1774 108.692 68.0032ZM93.2103 57.9994C83.0903 60.0577 75.8282 66.3362 76.9828 72.0127C77.2063 73.1118 77.7354 74.1141 78.5117 74.9963C81.7295 78.6406 89.2424 80.2319 97.3949 78.5735C105.548 76.9153 111.843 72.516 113.381 67.9041C113.751 66.789 113.846 65.6599 113.623 64.5605C112.468 58.884 103.331 55.9413 93.2103 57.9994Z" stroke="black" stroke-width="2"/>
<path fill-rule="evenodd" clip-rule="evenodd" d="M105.432 86.4253C105.638 87.4398 105.194 88.554 104.2 89.716C100.072 94.5231 86.4007 100.182 69.5923 103.601C52.784 107.019 37.9882 107.151 32.3102 104.338C30.9412 103.657 30.0972 102.804 29.8909 101.79C28.8256 96.5513 44.8655 88.8576 65.7307 84.6142C86.5954 80.3703 104.366 81.1867 105.432 86.4253Z" fill="#00C2FF"/>
<path fill-rule="evenodd" clip-rule="evenodd" d="M105.432 86.4253C105.638 87.4398 105.194 88.554 104.2 89.716C100.072 94.5231 86.4007 100.182 69.5923 103.601C52.784 107.019 37.9882 107.151 32.3102 104.338C30.9412 103.657 30.0972 102.804 29.8909 101.79C28.8256 96.5513 44.8655 88.8576 65.7307 84.6142C86.5954 80.3703 104.366 81.1867 105.432 86.4253Z" stroke="black" stroke-width="2"/>
<path fill-rule="evenodd" clip-rule="evenodd" d="M87.2124 89.227C87.3051 89.6826 87.0588 90.1926 86.5257 90.7319C84.3125 92.9635 77.1309 95.7163 68.3521 97.5019C59.5728 99.2874 51.8865 99.5587 48.9778 98.3688C48.2764 98.0808 47.8502 97.7073 47.7574 97.2517C47.2791 94.8999 55.7202 91.1935 66.6179 88.9771C77.5155 86.7605 86.7341 86.8752 87.2124 89.227Z" fill="#00C2FF"/>
<path fill-rule="evenodd" clip-rule="evenodd" d="M87.2124 89.227C87.3051 89.6826 87.0588 90.1926 86.5257 90.7319C84.3125 92.9635 77.1309 95.7163 68.3521 97.5019C59.5728 99.2874 51.8865 99.5587 48.9778 98.3688C48.2764 98.0808 47.8502 97.7073 47.7574 97.2517C47.2791 94.8999 55.7202 91.1935 66.6179 88.9771C77.5155 86.7605 86.7341 86.8752 87.2124 89.227Z" stroke="black" stroke-width="2"/>
<path fill-rule="evenodd" clip-rule="evenodd" d="M97.7497 48.6545C101.993 69.5195 88.5263 89.8633 67.6613 94.1071C46.7963 98.3511 26.4528 84.8839 22.2089 64.0192C21.3011 59.5567 37.4695 52.4937 58.3346 48.25C79.1995 44.006 96.842 44.1922 97.7497 48.6545Z" fill="#00C2FF"/>
<path fill-rule="evenodd" clip-rule="evenodd" d="M97.7497 48.6545C101.993 69.5195 88.5263 89.8633 67.6613 94.1071C46.7963 98.3511 26.4528 84.8839 22.2089 64.0192C21.3011 59.5567 37.4695 52.4937 58.3346 48.25C79.1995 44.006 96.842 44.1922 97.7497 48.6545Z" stroke="black" stroke-width="2"/>
<path fill-rule="evenodd" clip-rule="evenodd" d="M97.7496 48.6549C97.9252 49.5191 97.4521 50.488 96.43 51.5132C92.1868 55.7556 78.4323 61.005 61.6239 64.4241C44.8158 67.8427 30.1032 68.3828 24.5399 66.1348C23.1988 65.5903 22.3845 64.8834 22.2088 64.0196C21.301 59.5571 37.4694 52.4942 58.3345 48.2505C79.1994 44.0065 96.8419 44.1927 97.7496 48.6549Z" fill="#00C2FF"/>
<path fill-rule="evenodd" clip-rule="evenodd" d="M97.7496 48.6549C97.9252 49.5191 97.4521 50.488 96.43 51.5132C92.1868 55.7556 78.4323 61.005 61.6239 64.4241C44.8158 67.8427 30.1032 68.3828 24.5399 66.1348C23.1988 65.5903 22.3845 64.8834 22.2088 64.0196C21.301 59.5571 37.4694 52.4942 58.3345 48.2505C79.1994 44.0065 96.8419 44.1927 97.7496 48.6549Z" stroke="black" stroke-width="2"/>
<path fill-rule="evenodd" clip-rule="evenodd" d="M96.43 51.5125C92.1868 55.7549 78.4322 61.0043 61.6242 64.4232C44.8158 67.842 30.1032 68.3821 24.5399 66.1341C28.7831 61.8917 42.5375 56.642 59.346 53.2233C76.1545 49.8048 90.8666 49.2642 96.43 51.5125Z" fill="#7F5722"/>
<path fill-rule="evenodd" clip-rule="evenodd" d="M96.43 51.5125C92.1868 55.7549 78.4322 61.0043 61.6242 64.4232C44.8158 67.842 30.1032 68.3821 24.5399 66.1341C28.7831 61.8917 42.5375 56.642 59.346 53.2233C76.1545 49.8048 90.8666 49.2642 96.43 51.5125Z" stroke="black" stroke-width="2"/>
<path fill-rule="evenodd" clip-rule="evenodd" d="M53.8226 76.1953C54.0549 77.4763 53.205 78.7035 51.9239 78.9356C50.6426 79.168 49.4161 78.3182 49.1833 77.037C48.951 75.756 49.8013 74.529 51.0823 74.2966C52.3632 74.064 53.5902 74.9143 53.8226 76.1953Z" fill="black"/>
<path fill-rule="evenodd" clip-rule="evenodd" d="M78.293 71.3682C78.5255 72.6495 77.6755 73.8765 76.3944 74.1085C75.1134 74.3408 73.8866 73.4911 73.6542 72.2101C73.4218 70.9288 74.2718 69.7019 75.5528 69.4696C76.8338 69.2372 78.0607 70.0872 78.293 71.3682Z" fill="black"/>
<path fill-rule="evenodd" clip-rule="evenodd" d="M65.4253 81.6579C65.3544 81.6725 65.2832 81.6861 65.2115 81.6992C61.6654 82.3421 58.5524 80.9964 58.1244 78.6355C58.0357 78.147 58.3496 77.6763 58.8494 77.5896C59.3382 77.5009 59.8067 77.8255 59.8952 78.3144C60.1044 79.4682 62.2072 80.4147 64.89 79.9282C67.5726 79.4357 69.2091 77.8167 68.9998 76.6629C68.9123 76.1804 69.227 75.7176 69.7056 75.6206C69.712 75.6193 69.7181 75.6181 69.7245 75.6171C70.2135 75.5279 70.6821 75.8528 70.7706 76.3417C71.1904 78.6547 68.8549 80.9605 65.4253 81.6579Z" fill="black"/>
<path fill-rule="evenodd" clip-rule="evenodd" d="M64.9355 54.0039C63.036 54.0147 61.006 54.6313 59.3705 55.5858C57.5078 55.2444 55.3892 55.3548 53.5994 55.9905C51.6346 56.6889 50.6658 57.8153 50.491 58.8081C50.3019 59.8836 50.961 60.5715 52.4215 61.1736C53.7315 61.7209 55.5443 61.9291 57.2128 62.0943C58.7632 62.2474 59.5864 62.5624 60.7921 63.0913C63.0515 60.8235 70.5006 58.1809 68.7538 55.4935C68.2161 54.6664 66.9342 53.9928 64.9355 54.0039Z" fill="white"/>
<path fill-rule="evenodd" clip-rule="evenodd" d="M64.4894 62.3387C64.4894 62.3387 64.6912 62.118 65.0841 61.7725C65.4839 61.4355 66.0518 60.9477 66.8115 60.455C67.5675 59.9904 68.4494 59.4488 69.3943 58.8682C70.3209 58.2793 71.3088 57.648 72.1825 56.9113C72.6218 56.5496 73.0373 56.1617 73.3613 55.7423C73.6774 55.3206 73.9098 54.8737 73.8893 54.4608C73.8775 54.3599 73.8681 54.2582 73.8299 54.1617C73.8295 54.152 73.7999 54.0784 73.8248 54.1213L73.7771 54.0317L73.6853 53.8517C73.6208 53.7578 73.5773 53.7135 73.5137 53.6362C73.4293 53.5789 73.3682 53.4925 73.2693 53.4517C72.9108 53.2407 72.4616 53.1652 72.0461 53.1542C71.2059 53.1452 70.4743 53.311 69.9905 53.4687C69.5001 53.6216 69.2296 53.7518 69.2296 53.7518C69.2296 53.7518 69.456 53.5539 69.9234 53.307C70.3919 53.075 71.0856 52.7378 72.0249 52.6381C72.4896 52.5939 73.0365 52.5973 73.5868 52.8594C73.7284 52.91 73.8478 53.0212 73.981 53.1066C74.1009 53.2118 74.24 53.3641 74.3298 53.485L74.4368 53.6561L74.4892 53.7429C74.5407 53.8478 74.5293 53.8399 74.5526 53.8946C74.6206 54.0515 74.6536 54.2219 74.679 54.3967C74.741 55.1113 74.4313 55.7585 74.0572 56.2621C73.6763 56.7729 73.2255 57.2051 72.7576 57.6028C70.8525 59.1516 68.6581 60.1507 67.065 60.9027C66.2819 61.2918 65.626 61.6429 65.1869 61.9134C64.7428 62.1839 64.4894 62.3387 64.4894 62.3387Z" fill="white"/>
<path fill-rule="evenodd" clip-rule="evenodd" d="M57.0942 63.8429C57.0942 63.8429 56.8004 63.7995 56.2862 63.7237C55.7763 63.6464 55.035 63.5792 54.1622 63.5267C52.4019 63.4571 49.9915 63.3944 47.6331 62.713C47.047 62.5296 46.463 62.3081 45.913 61.9865C45.3716 61.669 44.8337 61.1941 44.6118 60.512C44.5668 60.3416 44.5306 60.1717 44.5321 60.0004C44.5321 59.9414 44.5246 59.9526 44.5311 59.8362L44.5457 59.7356L44.5774 59.5366C44.6125 59.39 44.681 59.1954 44.7506 59.0519C44.8397 58.9214 44.906 58.7723 45.017 58.6701C45.421 58.2141 45.9233 57.9974 46.3678 57.8565C47.2716 57.5814 48.0424 57.6209 48.5638 57.651C49.0908 57.6962 49.3766 57.7899 49.3766 57.7899C49.3766 57.7899 49.0764 57.7758 48.5652 57.8264C48.0581 57.8706 47.3203 58.0032 46.5502 58.3398C46.1722 58.5123 45.7883 58.7571 45.5405 59.0915C45.4652 59.1677 45.443 59.2711 45.3875 59.3568C45.3593 59.4528 45.3366 59.5106 45.3139 59.6227L45.2997 59.8239L45.2907 59.9248C45.2967 59.8758 45.2983 59.9552 45.3015 59.9639C45.3044 60.0677 45.3354 60.165 45.3638 60.2629C45.506 60.6506 45.8948 60.9711 46.3504 61.2359C46.8128 61.4958 47.3467 61.6904 47.8922 61.8514C48.9844 62.1888 50.1403 62.3837 51.2229 62.5644C52.32 62.7292 53.3436 62.8836 54.2209 63.016C55.1127 63.1725 55.8259 63.3999 56.3255 63.5541C56.8223 63.7188 57.0942 63.8429 57.0942 63.8429Z" fill="white"/>
<path fill-rule="evenodd" clip-rule="evenodd" d="M53.8216 52.9698C53.8216 52.9698 54.0951 52.666 54.5281 52.1348C54.746 51.8721 54.9956 51.5402 55.2662 51.1661C55.404 50.9801 55.5433 50.7791 55.6722 50.5581C55.8111 50.344 55.9565 50.1254 56.0806 49.8825C56.3536 49.413 56.5682 48.8777 56.7385 48.3372C56.8369 48.0672 56.8547 47.7848 56.9247 47.51C56.9213 47.2296 56.9745 46.9534 56.9421 46.6767C56.8839 46.4025 56.9092 46.1249 56.7894 45.8557L56.6663 45.448C56.6182 45.3129 56.532 45.1814 56.4698 45.047L56.2732 44.6418C56.1765 44.5141 56.08 44.386 55.9895 44.2537L55.7167 43.8578L55.3465 43.3708C54.9003 42.7839 54.3721 42.0119 53.9931 41.2784C53.7935 40.9109 53.6041 40.5417 53.4584 40.1488C53.2919 39.7702 53.1559 39.3789 53.0498 38.9831C52.8159 38.2016 52.7077 37.3996 52.6936 36.6432C52.6808 35.8837 52.7978 35.1711 52.9674 34.546C53.1333 33.9191 53.374 33.3814 53.622 32.937C53.8587 32.4868 54.1219 32.1339 54.3374 31.8506C54.552 31.5669 54.7467 31.3642 54.8763 31.2259C55.0089 31.0902 55.0796 31.018 55.0796 31.018C55.0796 31.018 54.9859 31.4052 54.8215 32.0831C54.7445 32.4165 54.6701 32.8219 54.599 33.2722C54.5331 33.7244 54.5051 34.2301 54.5024 34.761C54.5169 35.2953 54.5859 35.8575 54.7156 36.4325C54.8496 37.0079 55.0403 37.5975 55.3095 38.1907C55.5625 38.7864 55.8972 39.3813 56.2661 39.9774C56.6458 40.5778 56.9959 41.1016 57.504 41.7489C57.611 41.8974 57.7551 42.0823 57.8316 42.2006L58.2155 42.7701C58.343 42.96 58.4668 43.1509 58.5844 43.3447L58.8633 43.9938C58.9485 44.2127 59.0544 44.4183 59.1151 44.6462L59.2557 45.3429C59.3763 45.7972 59.333 46.276 59.3287 46.7293C59.3024 47.1815 59.186 47.6169 59.0846 48.029C58.9183 48.4164 58.8037 48.82 58.5939 49.1481C58.2145 49.8291 57.7625 50.3849 57.3016 50.8262C56.8626 51.2899 56.3943 51.6294 55.9766 51.9088C55.5682 52.1995 55.1768 52.3973 54.8579 52.555C54.217 52.8675 53.8216 52.9698 53.8216 52.9698Z" fill="#161616"/>
<path fill-rule="evenodd" clip-rule="evenodd" d="M58.1507 52.0898C58.1507 52.0898 58.5577 51.6394 59.2037 50.8511C59.84 50.0588 60.7312 48.9197 61.5128 47.4991C62.2871 46.0894 62.9363 44.3756 62.8015 42.734C62.7414 41.9121 62.5162 41.1076 62.1252 40.3064L61.7976 39.7113C61.6652 39.5183 61.5343 39.3236 61.412 39.1236L60.4209 37.822C59.7575 36.9499 58.9729 35.8027 58.408 34.7113C58.1114 34.1647 57.8294 33.6161 57.6125 33.0313C57.4976 32.7439 57.3755 32.4646 57.2709 32.1773C57.1814 31.8817 57.0925 31.5886 57.0045 31.2979C56.6564 30.1362 56.4956 28.9429 56.4737 27.8189C56.4597 26.6893 56.6189 25.6291 56.8693 24.6979C57.0013 24.234 57.1559 23.8004 57.3157 23.3997C57.507 23.0087 57.6584 22.6327 57.8534 22.3063C58.2056 21.6368 58.5971 21.1119 58.9174 20.6907C59.2366 20.2682 59.5259 19.9673 59.7188 19.7618C59.9158 19.56 60.021 19.4521 60.021 19.4521C60.021 19.4521 59.8814 20.0284 59.6374 21.0365C59.5228 21.532 59.4118 22.1352 59.3067 22.8045C59.2076 23.477 59.1651 24.2298 59.1736 25.0206C59.1931 25.8136 59.2821 26.6492 59.4798 27.5047C59.6799 28.3603 59.9636 29.2375 60.3638 30.1193C60.5619 30.5594 60.7606 31.0068 61.0154 31.4471C61.2396 31.8931 61.5165 32.3312 61.787 32.776C62.3516 33.6687 62.8738 34.4484 63.6285 35.4112L64.7099 36.9009C64.8917 37.1922 65.0673 37.4862 65.2347 37.7838L65.6774 38.726C66.217 40.0116 66.4587 41.4589 66.3499 42.8121C66.2594 44.1734 65.8117 45.4024 65.2542 46.4123C64.6919 47.4286 64.0157 48.2474 63.3427 48.9175C61.9767 50.2438 60.6453 51.0114 59.694 51.4758C58.7396 51.9386 58.1507 52.0898 58.1507 52.0898Z" fill="#161616"/>
</svg>
