<svg width="59" height="135" viewBox="0 0 59 135" fill="none" xmlns="http://www.w3.org/2000/svg">
<g clip-path="url(#clip0)">
<g opacity="0.6">
<path opacity="0.6" d="M47.49 54.338C47.2163 54.272 46.9397 54.2186 46.661 54.178C47.2745 52.6928 47.8679 51.1993 48.441 49.698L48.949 48.39C49.459 47.085 50.029 45.754 50.58 44.466L50.661 44.277C53.67 37.257 55.691 31.449 57.021 25.997C57.126 25.564 57.236 25.13 57.347 24.694C58.068 21.85 58.885 18.627 58.54 15.268C58.097 10.972 56.117 9.098 54.535 8.281C53.713 7.858 52.768 7.607 51.725 7.536C51.5 7.52075 51.2745 7.51308 51.049 7.513C43.769 7.513 41.383 15.188 39.958 19.773C39.783 20.335 39.616 20.873 39.451 21.369C39.064 22.5209 38.6683 23.67 38.264 24.816C38.2417 22.627 38.0713 20.442 37.754 18.276C37.275 14.791 36.429 11.893 35.169 9.419C32.676 4.527 29.362 3.5 27.02 3.5C26.5373 3.50099 26.0556 3.54314 25.58 3.626C23.127 4.049 21.245 5.656 20.282 8.149C19.448 10.307 19.336 12.543 19.237 14.516L19.194 15.336C19.035 18.083 18.968 20.857 18.904 23.539C18.812 27.34 18.717 31.271 18.357 35.072C17.89 40.011 16.94 45.029 16.022 49.882C15.778 51.172 15.534 52.462 15.298 53.752C15.206 54.259 15.11 54.782 14.965 55.08C14.665 55.692 14.1 56.142 13.277 56.557C12.804 56.673 12.337 56.797 11.89 56.937C10.268 57.442 8.91001 58.044 7.74101 58.77C5.81901 59.689 3.97001 61.028 2.89101 63.406C2.41101 64.466 2.24801 65.522 2.11801 66.37C1.22801 72.19 1.63001 78.63 3.34801 86.058C4.04401 89.061 5.05301 91.816 6.34801 94.248C7.16801 95.792 8.18901 97.058 9.09801 98.176C9.01583 98.741 9.10572 99.3176 9.35597 99.8308C9.60622 100.344 10.0052 100.77 10.501 101.053C10.648 101.137 10.797 101.218 10.947 101.297L10.945 101.329C10.544 107.972 8.44001 113.752 5.72901 120.619C5.57401 121.013 5.28601 121.744 5.34301 122.664C5.46701 124.692 6.97701 126.824 13.941 130.637C17.788 132.742 21.894 133.875 25.403 134.706C26.207 134.896 26.912 134.988 27.558 134.988C29.668 134.988 30.864 134.019 31.494 133.208C32.277 132.202 32.443 131.094 32.542 130.432L32.55 130.373C33.132 125.865 33.938 121.273 34.717 116.833C35.335 113.313 35.969 109.694 36.499 106.083C36.642 105.991 36.775 105.887 36.897 105.772C39.261 105.122 41.851 103.864 43.557 101.829C46.151 99.016 46.877 95.651 47.198 93.357C47.328 92.42 47.312 91.529 47.298 90.743C47.285 90.048 47.282 89.506 47.343 89.078C47.798 88.668 48.115 88.122 48.234 87.513C48.431 87.293 48.64 87.068 48.857 86.838C49.117 86.562 49.377 86.285 49.628 86.002C50.951 84.507 51.968 82.9 53.071 81.102L53.195 80.899C53.933 79.695 54.696 78.449 55.344 77.079C57.359 72.809 58.608 66.357 56.067 61.051C54.42 57.614 51.454 55.293 47.489 54.338" fill="black"/>
</g>
<path d="M45.8299 51.1183C45.5561 51.0522 45.2795 50.9989 45.0009 50.9583C45.6144 49.473 46.2078 47.9796 46.7809 46.4783L47.2889 45.1703C47.7989 43.8653 48.3689 42.5343 48.9199 41.2463L49.0009 41.0573C52.0099 34.0373 54.0309 28.2293 55.3609 22.7773C55.4659 22.3443 55.5759 21.9103 55.6869 21.4743C56.4079 18.6303 57.2249 15.4073 56.8799 12.0483C56.4369 7.75227 54.4569 5.87827 52.8749 5.06127C52.0529 4.63827 51.1079 4.38727 50.0649 4.31627C49.8398 4.30103 49.6144 4.29336 49.3889 4.29327C42.1089 4.29327 39.7229 11.9683 38.2979 16.5533C38.1229 17.1153 37.9559 17.6533 37.7909 18.1493C37.4038 19.3012 37.0081 20.4503 36.6039 21.5963C36.5815 19.4073 36.4111 17.2223 36.0939 15.0563C35.6149 11.5713 34.7689 8.67327 33.5089 6.19927C31.0159 1.30727 27.7019 0.280273 25.3599 0.280273C24.8771 0.281261 24.3954 0.323413 23.9199 0.406273C21.4669 0.829273 19.5849 2.43627 18.6219 4.92927C17.7879 7.08727 17.6759 9.32327 17.5769 11.2963L17.5339 12.1163C17.3749 14.8633 17.3079 17.6373 17.2439 20.3193C17.1519 24.1203 17.0569 28.0513 16.6969 31.8523C16.2299 36.7913 15.2799 41.8093 14.3619 46.6623C14.1179 47.9523 13.8739 49.2423 13.6379 50.5323C13.5459 51.0393 13.4499 51.5623 13.3049 51.8603C13.0049 52.4733 12.4399 52.9223 11.6169 53.3373C11.1439 53.4543 10.6769 53.5773 10.2299 53.7173C8.60786 54.2223 7.24986 54.8243 6.08086 55.5513C4.15886 56.4693 2.30886 57.8083 1.23086 60.1863C0.750858 61.2463 0.587858 62.3023 0.457858 63.1503C-0.432142 68.9703 -0.0301422 75.4103 1.68786 82.8383C2.38386 85.8413 3.39286 88.5963 4.68786 91.0283C5.50786 92.5723 6.52786 93.8383 7.43786 94.9563C7.35567 95.5213 7.44556 96.0979 7.69581 96.6111C7.94607 97.1242 8.34508 97.5501 8.84086 97.8333C8.98786 97.9173 9.13686 97.9983 9.28686 98.0773L9.28486 98.1093C8.88386 104.752 6.77986 110.532 4.06886 117.399C3.91386 117.793 3.62586 118.524 3.68286 119.444C3.80686 121.472 5.31686 123.604 12.2809 127.417C16.1279 129.522 20.2339 130.655 23.7429 131.486C24.5469 131.676 25.2519 131.768 25.8979 131.768C28.0079 131.768 29.2039 130.799 29.8339 129.988C30.6169 128.982 30.7829 127.874 30.8819 127.212L30.8899 127.153C31.4719 122.645 32.2779 118.053 33.0569 113.613C33.6749 110.093 34.3089 106.474 34.8389 102.863C34.9806 102.772 35.1138 102.668 35.2369 102.552C37.5999 101.902 40.1909 100.644 41.8969 98.6093C44.4909 95.7963 45.2169 92.4313 45.5379 90.1373C45.6679 89.2003 45.6519 88.3093 45.6379 87.5233C45.6249 86.8283 45.6219 86.2863 45.6819 85.8583C46.1379 85.4483 46.4549 84.9023 46.5739 84.2933C46.7699 84.0733 46.9789 83.8493 47.1969 83.6183C47.4569 83.3423 47.7169 83.0653 47.9679 82.7823C49.2909 81.2873 50.3079 79.6803 51.4109 77.8823L51.5349 77.6793C52.2729 76.4753 53.0359 75.2293 53.6839 73.8593C55.6989 69.5893 56.9479 63.1373 54.4069 57.8313C52.7599 54.3943 49.7939 52.0733 45.8289 51.1183" fill="white"/>
<path d="M48.9886 76.41L49.1147 76.202C49.8247 75.043 50.5366 73.882 51.1166 72.652C54.3156 65.878 54.0696 56.032 45.1666 53.889C43.2006 53.416 40.8876 53.887 39.6626 55.497C41.6836 51.99 43.1837 47.887 44.6427 44.145C45.1937 42.732 45.7946 41.339 46.3906 39.945C48.8726 34.157 51.1067 28.24 52.6017 22.111C53.3787 18.924 54.3956 15.664 54.0546 12.347C53.8636 10.492 53.2316 8.45004 51.5746 7.59504C51.0516 7.32504 50.4626 7.19904 49.8756 7.16004C43.6036 6.73504 42.0006 14.53 40.4886 19.058C39.1616 23.029 37.6756 26.928 36.4356 30.936C35.3196 34.541 34.0027 38 32.7817 41.535C31.8377 44.268 30.4356 46.808 29.5496 49.57C31.2716 44.206 32.1146 38.272 32.9296 32.704C33.7636 27.007 34.1326 21.185 33.2836 15.467C32.9106 12.749 32.2296 9.95104 30.9786 7.49704C29.6866 4.96204 27.6406 2.65604 24.4066 3.21404C22.8306 3.48704 21.8446 4.48904 21.2766 5.96004C20.5056 7.95704 20.4966 10.18 20.3736 12.289C19.9936 18.897 20.1536 25.533 19.5296 32.129C18.9266 38.499 17.5876 44.761 16.4376 51.051C16.3076 51.756 16.1757 52.471 15.8617 53.115C13.6217 57.698 6.05765 56.44 3.82165 61.367C3.50565 62.064 3.38665 62.832 3.27165 63.589C2.31665 69.818 3.04865 76.106 4.46065 82.205C5.06265 84.809 5.94265 87.339 7.19965 89.701C8.49965 92.143 10.4427 93.831 11.8167 96.105C12.2027 96.745 12.1697 97.542 12.1247 98.288C11.6887 105.518 9.32965 111.828 6.71665 118.45C6.61165 118.716 6.50465 118.993 6.52265 119.278C6.63265 121.077 12.2297 124.155 13.6487 124.931C16.9947 126.763 20.7066 127.853 24.4006 128.728C25.5106 128.991 26.8936 129.152 27.5946 128.251C27.9106 127.843 27.9976 127.308 28.0746 126.798C29.2236 117.895 31.1647 109.066 32.3447 100.228C34.8697 99.98 38.0766 98.797 39.7636 96.741C41.5976 94.781 42.3627 92.356 42.7257 89.751C43.0197 87.651 42.3356 85.432 43.5466 83.571C44.1866 82.588 45.0646 81.786 45.8426 80.906C47.0566 79.534 48.0306 77.972 48.9886 76.409" fill="#FFD1BD"/>
<path d="M48.9886 76.41L49.1147 76.202C49.8247 75.043 50.5366 73.882 51.1166 72.652C54.3156 65.878 54.0696 56.032 45.1666 53.889C43.2006 53.416 40.8876 53.887 39.6626 55.497C41.6836 51.99 43.1837 47.887 44.6427 44.145C45.1937 42.732 45.7946 41.339 46.3906 39.945C48.8726 34.157 51.1067 28.24 52.6017 22.111C53.3787 18.924 54.3956 15.664 54.0546 12.347C53.8636 10.492 53.2316 8.45004 51.5746 7.59504C51.0516 7.32504 50.4626 7.19904 49.8756 7.16004C43.6036 6.73504 42.0006 14.53 40.4886 19.058C39.1616 23.029 37.6756 26.928 36.4356 30.936C35.3196 34.541 34.0027 38 32.7817 41.535C31.8377 44.268 30.4356 46.808 29.5496 49.57C31.2716 44.206 32.1146 38.272 32.9296 32.704C33.7636 27.007 34.1326 21.185 33.2836 15.467C32.9106 12.749 32.2296 9.95104 30.9786 7.49704C29.6866 4.96204 27.6406 2.65604 24.4066 3.21404C22.8306 3.48704 21.8446 4.48904 21.2766 5.96004C20.5056 7.95704 20.4966 10.18 20.3736 12.289C19.9936 18.897 20.1536 25.533 19.5296 32.129C18.9266 38.499 17.5876 44.761 16.4376 51.051C16.3076 51.756 16.1757 52.471 15.8617 53.115C13.6217 57.698 6.05765 56.44 3.82165 61.367C3.50565 62.064 3.38665 62.832 3.27165 63.589C2.31665 69.818 3.04865 76.106 4.46065 82.205C5.06265 84.809 5.94265 87.339 7.19965 89.701C8.49965 92.143 10.4427 93.831 11.8167 96.105C12.2027 96.745 12.1697 97.542 12.1247 98.288C11.6887 105.518 9.32965 111.828 6.71665 118.45C6.61165 118.716 6.50465 118.993 6.52265 119.278C6.63265 121.077 12.2297 124.155 13.6487 124.931C16.9947 126.763 20.7066 127.853 24.4006 128.728C25.5106 128.991 26.8936 129.152 27.5946 128.251C27.9106 127.843 27.9976 127.308 28.0746 126.798C29.2236 117.895 31.1647 109.066 32.3447 100.228C34.8697 99.98 38.0766 98.797 39.7636 96.741C41.5976 94.781 42.3627 92.356 42.7257 89.751C43.0197 87.651 42.3356 85.432 43.5466 83.571C44.1866 82.588 45.0646 81.786 45.8426 80.906C47.0566 79.534 48.0306 77.972 48.9886 76.409V76.41Z" stroke="black" stroke-width="2" stroke-miterlimit="20" stroke-linejoin="round"/>
<path d="M43.787 83.7553C43.667 83.8323 43.589 83.8703 43.493 83.9173C43.4 83.9653 43.308 83.9973 43.215 84.0373C43.031 84.1064 42.8425 84.1632 42.651 84.2073C42.462 84.2613 42.269 84.2773 42.078 84.3103C41.887 84.3213 41.694 84.3443 41.503 84.3413C40.7469 84.338 39.9973 84.2009 39.289 83.9363C38.5996 83.6806 37.943 83.3439 37.333 82.9333C37.183 82.8313 37.026 82.7373 36.881 82.6293L36.451 82.2973C36.173 82.0853 35.867 81.8373 35.621 81.5373C35.118 80.9493 34.806 80.2253 34.653 79.5043C34.493 78.7803 34.45 78.0543 34.44 77.3443C34.43 76.6323 34.45 75.9303 34.427 75.2413C34.4 74.5193 34.452 73.7993 34.557 73.0913C34.767 71.6763 35.171 70.3053 35.69 68.9883C36.214 67.6713 36.83 66.3943 37.592 65.1983C39.109 62.8143 41.226 60.7833 43.772 59.5703C41.262 60.8553 39.226 62.9323 37.797 65.3243C37.081 66.5223 36.506 67.8063 36.027 69.1143C35.554 70.4263 35.197 71.7823 35.033 73.1543C34.953 73.8403 34.923 74.5303 34.968 75.2123C35.013 75.9283 35.012 76.6323 35.042 77.3263C35.071 78.0193 35.134 78.7043 35.297 79.3503C35.453 79.9973 35.74 80.5923 36.166 81.0633C36.372 81.3033 36.623 81.4953 36.908 81.6993L37.321 82.0013C37.461 82.0993 37.609 82.1823 37.752 82.2733C38.3195 82.6331 38.9278 82.9241 39.564 83.1403C40.182 83.3528 40.8326 83.4544 41.486 83.4403C41.646 83.4373 41.804 83.4123 41.962 83.4003C42.116 83.3663 42.275 83.3513 42.424 83.3033C42.576 83.2653 42.722 83.2133 42.864 83.1573C42.932 83.1243 43.006 83.0973 43.068 83.0623C43.1249 83.0336 43.1803 83.0019 43.234 82.9673L43.787 83.7553Z" fill="black"/>
<path d="M38.5452 64.5198C38.2357 64.3306 37.9737 64.073 37.7792 63.7668C37.6732 63.6268 37.6092 63.4628 37.5282 63.3098C37.4762 63.1458 37.3992 62.9888 37.3702 62.8198C37.2278 62.1622 37.2381 61.4808 37.4002 60.8278C37.4222 60.6638 37.4862 60.5108 37.5292 60.3528C37.5792 60.1968 37.6152 60.0358 37.6792 59.8848C37.8092 59.5858 37.9122 59.2748 38.0652 58.9878C38.2182 58.7008 38.3502 58.4038 38.5202 58.1278L39.0272 57.2998L38.5742 58.1568C38.4222 58.4408 38.3092 58.7448 38.1742 59.0368C38.0412 59.3298 37.9602 59.6418 37.8502 59.9418C37.7972 60.0938 37.7722 60.2518 37.7322 60.4058C37.7012 60.5618 37.6472 60.7138 37.6362 60.8728C37.5292 61.4968 37.5462 62.1398 37.7182 62.7238C37.7522 62.8738 37.8302 63.0058 37.8832 63.1458C37.9632 63.2728 38.0232 63.4118 38.1232 63.5238C38.2932 63.7578 38.5362 63.9718 38.7582 64.0868L38.5452 64.5198Z" fill="black"/>
<path d="M33.2891 100.487C33.0471 100.379 32.7281 100.37 32.3651 100.402C32.0091 100.431 31.5851 100.496 31.1641 100.447C30.3841 100.372 29.6141 100.221 28.8741 99.9865C27.4016 99.5303 26.0386 98.776 24.8701 97.7705C26.1057 98.6398 27.5072 99.2451 28.9871 99.5485C29.7171 99.7015 30.4581 99.7705 31.1951 99.7685C31.5351 99.7745 31.8651 99.6885 32.2591 99.6155C32.6421 99.5455 33.1071 99.4835 33.5891 99.6315L33.2891 100.487Z" fill="black"/>
<path d="M10.71 94.5875C12.994 95.9765 15.76 96.5206 18.46 96.3276C19.81 96.2156 21.165 95.9875 22.383 95.4215C23.613 94.8775 24.684 94.0116 25.604 93.0086C26.521 91.9986 27.31 90.8596 28.032 89.6886C28.3904 89.1024 28.7152 88.4964 29.005 87.8736C29.283 87.2456 29.551 86.6096 29.763 85.9536C30.648 83.3356 30.991 80.5635 31.265 77.8105C31.065 80.5705 30.8 83.3526 29.978 86.0236C29.782 86.6926 29.528 87.3435 29.263 87.9885C28.9859 88.6304 28.6728 89.2561 28.325 89.8625C27.625 91.0685 26.861 92.2395 25.943 93.3095C25.023 94.3695 23.92 95.3185 22.624 95.9335C21.9815 96.2481 21.3055 96.4893 20.609 96.6525C19.919 96.8165 19.222 96.9305 18.517 97.0045C15.707 97.2815 12.761 96.8015 10.25 95.3685L10.71 94.5875Z" fill="black"/>
<path d="M21.2146 71.3602C21.0644 71.9596 20.773 72.5144 20.3646 72.9781C19.9566 73.4381 19.4466 73.7822 18.9116 74.0212C17.8316 74.4972 16.6716 74.6031 15.5556 74.5471C14.4407 74.4826 13.3425 74.2465 12.2996 73.8472C11.2736 73.4462 10.2676 72.8942 9.55957 72.0442C10.3236 72.8412 11.3456 73.3092 12.3736 73.6332C13.4076 73.9498 14.4842 74.1053 15.5656 74.0942C16.6326 74.0772 17.7096 73.8902 18.6136 73.4112C19.0636 73.1712 19.4586 72.8562 19.7536 72.4722C20.0536 72.0902 20.2416 71.6382 20.3306 71.1602L21.2146 71.3602Z" fill="black"/>
<path d="M38.3354 70.936C36.4114 74.661 31.4284 74.505 27.9084 73.815C23.4364 72.939 18.6214 71.549 17.4314 66.648C16.9734 64.761 17.0194 62.788 17.1914 60.853C17.2834 59.826 17.4134 58.789 17.7984 57.833C20.1384 52.024 34.4754 60 37.8204 61.986C37.8204 61.986 41.9254 63.991 38.3354 70.936Z" fill="#FFD1BD"/>
<path d="M7.41992 58.0683C8.54292 57.3433 9.79692 56.8334 11.0759 56.4354C12.3559 56.0354 13.6789 55.7683 15.0129 55.5983C16.3497 55.4359 17.6971 55.3774 19.0429 55.4233C19.7179 55.4373 20.3889 55.4933 21.0609 55.5483C21.7289 55.6313 22.3999 55.7034 23.0629 55.8244C25.7279 56.2454 28.3209 57.0353 30.8269 58.0143C33.3369 58.9923 35.7419 60.2184 38.0569 61.5814L38.0239 61.5633C38.1539 61.6333 38.2369 61.6853 38.3319 61.7533C38.4259 61.8153 38.5119 61.8833 38.5949 61.9543C38.6809 62.0223 38.7619 62.0963 38.8379 62.1743C38.9129 62.2523 38.9979 62.3223 39.0629 62.4083C39.2029 62.5743 39.3429 62.7403 39.4549 62.9253C39.5809 63.1013 39.6769 63.2943 39.7709 63.4873C40.1429 64.2673 40.2709 65.1233 40.2709 65.9493C40.2309 67.6143 39.6919 69.1643 39.0089 70.5893L38.7539 71.1273C38.6529 71.3073 38.5399 71.4873 38.4319 71.6663C38.3339 71.8523 38.1829 72.0033 38.0559 72.1703L37.8569 72.4134L37.6289 72.6313C37.0299 73.2116 36.3187 73.6635 35.5389 73.9593C34.0039 74.5563 32.3689 74.6774 30.7939 74.5774C27.6289 74.3624 24.6019 73.4033 21.7679 72.1163C20.3517 71.4671 18.9874 70.7102 17.6869 69.8523C17.0373 69.4252 16.408 68.968 15.8009 68.4824C15.2019 67.9887 14.6348 67.4577 14.1029 66.8923C15.2359 67.9493 16.5059 68.8374 17.8299 69.6224C19.1539 70.4104 20.5469 71.0753 21.9669 71.6593C23.3823 72.2501 24.8401 72.7338 26.3279 73.1064C27.8099 73.4744 29.3209 73.7493 30.8319 73.7943C31.5879 73.8323 32.3399 73.7874 33.0789 73.7044C33.8105 73.6131 34.5274 73.4283 35.2119 73.1543C35.8801 72.8911 36.487 72.4932 36.9949 71.9853L37.1849 71.8004L37.3489 71.5914C37.4529 71.4484 37.5789 71.3224 37.6599 71.1624L37.9319 70.7044L38.1709 70.1924C38.8159 68.8364 39.2929 67.3863 39.3189 65.9433C39.3159 65.2283 39.1979 64.5213 38.9019 63.8993C38.8279 63.7443 38.7539 63.5894 38.6539 63.4494C38.5669 63.3014 38.4569 63.1723 38.3479 63.0403C38.2979 62.9713 38.2299 62.9183 38.1729 62.8563C38.1155 62.7949 38.0533 62.738 37.9869 62.6863C37.9246 62.6311 37.8588 62.58 37.7899 62.5333C37.7299 62.4863 37.6459 62.4383 37.6069 62.4163L37.5729 62.3973C35.3057 61.0361 32.9413 59.8435 30.4989 58.8293C29.8849 58.5863 29.2759 58.3293 28.6509 58.1193L27.7179 57.7894L26.7729 57.4933L26.3009 57.3444L25.8239 57.2134L24.8699 56.9523C24.2269 56.8063 23.5879 56.6393 22.9369 56.5273C20.3489 56.0183 17.6929 55.8334 15.0569 56.0334C13.7389 56.1344 12.4239 56.3333 11.1399 56.6633C10.4959 56.8233 9.86492 57.0283 9.23992 57.2533C8.61692 57.4823 7.99992 57.7383 7.41992 58.0683" fill="black"/>
</g>
<defs>
<clipPath id="clip0">
<rect width="59" height="135" fill="white"/>
</clipPath>
</defs>
</svg>
