<svg width="209" height="66" viewBox="0 0 209 66" fill="none" xmlns="http://www.w3.org/2000/svg">
<path fill-rule="evenodd" clip-rule="evenodd" d="M29 27.0281H50.5055V5.52246H29V27.0281Z" fill="#F59100"/>
<path fill-rule="evenodd" clip-rule="evenodd" d="M41.8943 12.2247V13.2356C42.4502 12.849 43.1054 12.6317 43.8245 12.6317C45.7594 12.6317 47.3278 14.2642 47.3278 16.278C47.3278 18.2918 45.7594 19.9243 43.8245 19.9243C43.109 19.9243 42.4438 19.7007 41.8896 19.3175V21.7492L40.1724 22.143V12.6413L41.8943 12.2247ZM39.3234 10.041V16.9106C39.3234 18.5873 38.0528 19.9255 35.9704 19.9255C34.3751 19.9255 32.7256 19.0197 32.7256 16.6537V10.4345L34.5104 10.041V16.3968C34.5104 17.208 34.6591 18.2085 36.0517 18.2085C37.2955 18.2085 37.5389 17.3568 37.5389 16.2481V10.4345L39.3234 10.041ZM43.7146 14.193C42.5655 14.193 41.7272 15.1531 41.7272 16.2753C41.7272 17.3973 42.5655 18.3574 43.7146 18.3574C44.8638 18.3574 45.7023 17.3973 45.7023 16.2753C45.7023 15.1531 44.8638 14.193 43.7146 14.193Z" fill="white"/>
<path fill-rule="evenodd" clip-rule="evenodd" d="M98.3921 39.5657V56.4854C98.3921 59.8694 96.2302 62 92.6897 62C92.1883 62 91.7184 61.9686 91.2796 61.9373L90.0577 58.4594C90.371 58.4907 90.6844 58.5534 91.2171 58.5534C92.9402 58.5534 94.4129 57.7075 94.4129 55.7648V39.9419L98.3921 39.5657ZM132.732 39.4406V55.8588L128.972 56.1095V54.0415H128.91C127.562 55.8588 126.246 56.3601 124.022 56.3601C120.732 56.3601 118.539 54.2609 118.539 50.8769V39.942L122.518 39.4406V49.8116C122.518 51.5036 123.301 52.9135 125.087 52.9135C127.594 52.9135 128.753 51.0023 128.753 48.997V39.942L132.732 39.4406ZM85.1697 39.4406C88.4597 39.4406 91.3423 41.4145 92.7522 44.3598L81.8484 51.1276C82.1618 51.7855 83.039 52.7257 84.9504 52.7257C86.987 52.7257 88.491 51.9421 90.1515 50.8455L91.8435 54.2609C89.901 55.6081 87.5196 56.3601 85.1697 56.3601C80.4697 56.3601 76.3339 52.6943 76.3339 47.9004C76.3339 43.1065 80.4697 39.4406 85.1697 39.4406ZM109.17 39.4406C112.46 39.4406 115.343 41.4145 116.753 44.3598L105.849 51.1276C106.162 51.7855 107.039 52.7257 108.951 52.7257C110.987 52.7257 112.491 51.9421 114.152 50.8455L115.844 54.2609C113.901 55.6081 111.52 56.3601 109.17 56.3601C104.47 56.3601 100.334 52.6942 100.334 47.9004C100.334 43.1065 104.47 39.4406 109.17 39.4406ZM160.869 39.4406C164.159 39.4406 167.042 41.4145 168.452 44.3598L157.548 51.1276C157.861 51.7855 158.739 52.7257 160.65 52.7257C162.687 52.7257 164.19 51.9421 165.851 50.8455L167.543 54.2609C165.601 55.6081 163.219 56.3601 160.869 56.3601C156.169 56.3601 152.034 52.6942 152.034 47.9004C152.034 43.1065 156.169 39.4406 160.869 39.4406ZM144.482 39.4406C147.772 39.4406 149.965 41.5398 149.965 44.9238V55.8587L145.986 56.1096V45.9891C145.986 44.2971 145.203 42.887 143.417 42.887C140.91 42.887 139.751 44.7984 139.751 46.8037V55.8587L135.772 56.1096V39.9419L139.532 39.5657V41.7592H139.594C140.942 39.9419 142.258 39.4406 144.482 39.4406ZM179.763 39.4407L178.384 43.6705C175.345 43.6705 173.998 45.4564 173.998 48.2136V55.8588L170.019 56.1095V39.9418L173.778 39.5658V42.4485H173.841C175.22 39.9732 177.006 39.4719 179.763 39.4407ZM65.0541 34.3646C70.3493 34.3646 74.9552 39.0645 74.9552 44.955C74.9552 52.1616 69.3152 55.8589 64.2394 55.8589H58.537V34.3646H65.0541ZM64.6781 38.344H62.6728V51.8795H64.8661C68.6572 51.8795 70.6312 48.3704 70.6312 44.955C70.6312 41.2891 68.1247 38.344 64.6781 38.344ZM84.9504 42.7619C82.4438 42.7619 80.4385 44.7983 80.2192 47.2423C80.2192 47.5869 80.2192 47.9316 80.2819 48.3076L87.739 43.7958C86.987 43.0439 86.0157 42.7619 84.9504 42.7619ZM160.65 42.7619C158.143 42.7619 156.138 44.7983 155.919 47.2423C155.919 47.5869 155.919 47.9316 155.981 48.3076L163.439 43.7958C162.687 43.0438 161.715 42.7619 160.65 42.7619ZM108.951 42.7619C106.444 42.7619 104.439 44.7983 104.22 47.2423C104.22 47.5869 104.22 47.9316 104.282 48.3076L111.739 43.7958C110.987 43.0438 110.016 42.7619 108.951 42.7619ZM96.4809 33.0174L99.1755 35.6806L96.4809 38.344L93.7862 35.6806L96.4809 33.0174ZM90.1829 32.8295L85.5142 37.4039H82.3811L85.3264 32.8295H90.1829ZM117.201 10.6112C119.394 10.6112 120.491 11.1752 122.152 12.8358V11.1125L125.912 10.8619V32.168L121.932 32.6693V25.8389C120.46 27.0606 118.799 27.5307 117.232 27.5307C112.595 27.5307 109.337 23.2069 109.337 19.165C109.337 14.6531 112.658 10.6112 117.201 10.6112ZM154.079 10.6112C157.369 10.6112 160.252 12.5851 161.662 15.5304L150.758 22.2983C151.072 22.9562 151.949 23.8962 153.86 23.8962C155.897 23.8962 157.401 23.1128 159.061 22.0161L160.753 25.4314C158.811 26.7787 156.429 27.5307 154.079 27.5307C149.38 27.5307 145.244 23.8648 145.244 19.0709C145.244 14.2771 149.38 10.6112 154.079 10.6112ZM100.657 10.6112C103.947 10.6112 106.83 12.5851 108.24 15.5304L97.3361 22.2983C97.6494 22.9562 98.5266 23.8962 100.438 23.8962C102.475 23.8962 103.979 23.1128 105.639 22.0161L107.331 25.4314C105.389 26.7787 103.007 27.5307 100.657 27.5307C95.9574 27.5307 91.8216 23.8648 91.8216 19.0709C91.8216 14.2771 95.9574 10.6112 100.657 10.6112ZM68.6664 5.03393C69.7003 5.03393 71.2671 5.28459 72.1443 5.81733L72.8336 10.7992C71.7056 9.89046 70.2643 9.2638 68.4784 9.2638C64.6871 9.2638 62.0552 12.6478 62.0552 16.2824C62.0552 20.293 65.0632 23.3008 68.6664 23.3008C70.3897 23.3008 71.7371 22.4235 72.865 21.5149L72.3011 26.716C71.3925 27.2488 69.763 27.5307 68.7918 27.5307C62.1493 27.5307 57.7314 22.5488 57.7314 16.2824C57.7314 10.0786 62.2432 5.03393 68.6664 5.03393ZM143.176 10.6111V27.0294L139.416 27.2801V25.2121H139.353C138.006 27.0294 136.69 27.5308 134.465 27.5308C131.175 27.5308 128.982 25.4315 128.982 22.0476V11.1126L132.961 10.6111V20.9822C132.961 22.6742 133.745 24.0841 135.53 24.0841C138.037 24.0841 139.196 22.1729 139.196 20.1676V11.1126L143.176 10.6111ZM79.539 5.03396V12.6164H79.6016C80.7295 11.1126 82.0455 10.6112 84.2702 10.6112C87.5601 10.6112 89.7534 12.7105 89.7534 16.0944V27.0294L85.774 27.2802V17.1596C85.774 15.4678 84.9908 14.0577 83.2049 14.0577C80.6982 14.0577 79.539 15.9691 79.539 17.9742V27.0294L75.5598 27.2802V5.53529L79.539 5.03396ZM117.702 14.2457C115.039 14.2457 113.097 16.4704 113.097 19.0709C113.097 21.6717 115.039 23.8962 117.702 23.8962C120.366 23.8962 122.308 21.6717 122.308 19.0709C122.308 16.4704 120.366 14.2457 117.702 14.2457ZM100.438 13.9325C97.9315 13.9325 95.9262 15.969 95.7068 18.4129C95.7068 18.7576 95.7068 19.1022 95.7694 19.4783L103.227 14.9664C102.475 14.2144 101.503 13.9325 100.438 13.9325ZM153.86 13.9325C151.354 13.9325 149.348 15.969 149.129 18.4129C149.129 18.7576 149.129 19.1022 149.192 19.4783L156.649 14.9664C155.897 14.2144 154.926 13.9325 153.86 13.9325ZM100.125 4L103.07 8.57461H99.9366L95.2681 4H100.125Z" fill="#2C3334"/>
</svg>
