<svg width="209" height="66" viewBox="0 0 209 66" fill="none" xmlns="http://www.w3.org/2000/svg">
<path fill-rule="evenodd" clip-rule="evenodd" d="M56 52.0488H90.8643V17.1846H56V52.0488Z" fill="#FF9E18"/>
<path fill-rule="evenodd" clip-rule="evenodd" d="M76.9035 28.049V29.6871C77.805 29.06 78.8676 28.7082 80.0334 28.7082C83.171 28.7082 85.7132 31.355 85.7132 34.6202C85.7132 37.8843 83.171 40.531 80.0334 40.531C78.8739 40.531 77.7953 40.1681 76.8962 39.5472V43.4902L74.1117 44.1285V28.7243L76.9035 28.049ZM72.7357 24.5088V35.6452C72.7357 38.3644 70.6756 40.5325 67.3011 40.5325C64.7136 40.5325 62.041 39.0654 62.041 35.2296V25.1457L64.9336 24.5088V34.8127C64.9336 36.1283 65.1748 37.7494 67.4328 37.7494C69.4485 37.7494 69.8431 36.3682 69.8431 34.5714V25.1457L72.7357 24.5088ZM79.8552 31.2406C77.9918 31.2406 76.6329 32.7965 76.6329 34.6153C76.6329 36.4344 77.9918 37.9914 79.8552 37.9914C81.7183 37.9914 83.0776 36.4344 83.0776 34.6153C83.0776 32.7965 81.7183 31.2406 79.8552 31.2406Z" fill="#FEFEFE"/>
<path fill-rule="evenodd" clip-rule="evenodd" d="M104.194 52.8615L110.902 52.0485V38.0727H120.304V31.6184H110.902V23.6397H123.607L122.134 17.1853H104.194V52.8615ZM125.793 52.4552L132.247 52.0485V25.6216L125.793 26.2315V52.4552ZM129.147 15L124.776 19.3199L129.147 23.6397L133.517 19.3199L129.147 15ZM138.701 26.2315H136.16L134.737 31.8217H138.701V44.2221C138.701 49.9647 142.665 52.8615 148.103 52.8615C148.916 52.8615 150.034 52.8109 150.644 52.6583L152.219 46.8646C151.508 46.9157 150.695 46.9664 149.983 46.9664C146.223 46.9664 145.155 45.3402 145.155 42.8498V31.8217H151V26.2315H145.155V18.8625L138.701 21.7594V26.2315Z" fill="#2C3334"/>
</svg>
