<svg width="209" height="66" viewBox="0 0 209 66" fill="none" xmlns="http://www.w3.org/2000/svg">
<path fill-rule="evenodd" clip-rule="evenodd" d="M42 55.8381H85.8356V12H42V55.8381Z" fill="#FF9E18"/>
<path fill-rule="evenodd" clip-rule="evenodd" d="M68.2855 25.6623V27.7217C69.417 26.9356 70.7548 26.4922 72.2188 26.4922C76.1623 26.4922 79.3584 29.8198 79.3584 33.9232C79.3584 38.0291 76.1623 41.3567 72.2188 41.3567C70.7599 41.3567 69.4041 40.9005 68.2752 40.1195V45.0786L64.7724 45.8802V26.5103L68.2855 25.6623ZM63.0436 21.2109V35.2119C63.0436 38.6323 60.4533 41.3593 56.2081 41.3593C52.9553 41.3593 49.5942 39.5138 49.5942 34.6913V22.0125L53.2311 21.2109V34.1655C53.2311 35.8202 53.5352 37.859 56.3731 37.859C58.9093 37.859 59.4042 36.1218 59.4042 33.8639V22.0125L63.0436 21.2109ZM71.9945 29.6755C69.6516 29.6755 67.9427 31.6318 67.9427 33.918C67.9427 36.2068 69.6516 38.1632 71.9945 38.1632C74.3375 38.1632 76.0464 36.2068 76.0464 33.918C76.0464 31.6318 74.3375 29.6755 71.9945 29.6755Z" fill="#FEFEFE"/>
<path fill-rule="evenodd" clip-rule="evenodd" d="M112.93 18.9989C118.069 18.9989 121.696 20.8572 124.632 23.4889L121.137 27.9815C118.631 26.1231 116.688 24.4838 112.757 24.4838C107.316 24.4838 103.256 29.1903 103.256 34.8917C103.256 40.8509 108.44 44.5213 112.974 44.5213C115.131 44.5213 117.636 43.614 119.363 42.4928V37.3945H110.729L112.543 31.9121H125.065V45.5574C123.165 47.7586 117.42 50.0062 112.974 50.0062C104.38 50.0062 97.2998 43.2248 97.2998 34.4587C97.2998 25.5199 104.813 18.9989 112.93 18.9989ZM151.388 32.1271H145.818V49.3139L140.333 49.6593V32.1271H136.877L138.088 27.3768H140.333C140.462 24.2683 141.931 22.1522 143.919 20.7268C146.079 19.1726 148.365 18.9999 151.605 18.9999L153.548 24.0956C152.38 24.0518 151.172 24.008 150.007 24.008C147.46 24.008 145.947 24.6988 145.818 27.3768H151.388L151.388 31.589L152.463 27.3763H154.62V23.577L160.105 21.1155V27.3763H165.072V32.1266H160.105V41.4984C160.105 43.6145 161.013 44.9961 164.209 44.9961C164.812 44.9961 165.505 44.9522 166.108 44.9084L164.771 49.834C164.25 49.9629 163.301 50.0041 162.611 50.0041C157.992 50.0041 154.62 47.5426 154.62 42.6634V32.1266L151.388 32.126L151.388 32.1271ZM134.768 26.8584V49.3136L129.283 49.659V27.3765L134.768 26.8584ZM132.134 17.832L135.848 21.505L132.134 25.1753L128.42 21.505L132.134 17.832Z" fill="#2C3334"/>
</svg>
