<svg width="209" height="66" viewBox="0 0 209 66" fill="none" xmlns="http://www.w3.org/2000/svg">
<path d="M37.7814 15H3V49.7814H37.7814V15Z" fill="#FF9E18"/>
<path d="M23.8552 25.8384V27.4744C24.7529 26.8486 25.8122 26.4969 26.9758 26.4969C30.1047 26.4969 32.6425 29.137 32.6425 32.3967C32.6425 35.6544 30.1047 38.2945 26.9758 38.2945C25.8184 38.2945 24.7427 37.9325 23.847 37.3129V41.2454L21.0699 41.8814V26.5132L23.8552 25.8384ZM19.6977 22.3066V33.4171C19.6977 36.1309 17.6425 38.2945 14.2743 38.2945C11.6956 38.2945 9.02686 36.8282 9.02686 33.002V22.9426L11.9124 22.3066V32.5848C11.9124 33.8977 12.1537 35.5153 14.4052 35.5153C16.4175 35.5153 16.8101 34.139 16.8101 32.3456V22.9426L19.6977 22.3066ZM26.7979 29.0204C24.939 29.0204 23.5832 30.5746 23.5832 32.3885C23.5832 34.2045 24.939 35.7566 26.7979 35.7566C28.6568 35.7566 30.0127 34.2045 30.0127 32.3885C30.0127 30.5725 28.6568 29.0204 26.7979 29.0204Z" fill="white"/>
<path d="M66.4748 25.3311L65.6057 29.0857H62.894C64.0065 30.3352 64.667 31.6215 64.667 33.3945C64.667 35.8628 63.1373 37.6706 60.9124 38.5745C63.3807 39.7545 64.9778 41.5622 64.9778 44.3782C64.9778 49.1758 60.3541 51.3312 56.6363 51.3312C52.6035 51.3312 50.033 50.323 47.7017 47.7852L50.4133 44.9692C52.2906 46.9161 53.4031 47.6482 56.1823 47.6482C57.9553 47.6482 60.3909 46.5705 60.3909 44.2044C60.3909 41.4948 58.2702 40.2412 55.6976 40.2412C54.168 40.2412 52.7078 40.7974 51.4215 41.5275L52.1516 39.0592C49.127 37.7729 47.9818 36.2084 47.9818 33.2534C47.9818 29.1184 51.5606 26.3024 56.0453 26.3024C57.0535 26.3024 57.9574 26.3392 58.6874 26.4067C59.4154 26.4435 60.0085 26.5131 60.3214 26.5131C62.0596 26.5131 64.4932 25.9568 66.4748 25.3311ZM76.7755 26.3024C81.9902 26.3024 86.5792 30.3699 86.5792 35.689C86.5792 41.0081 81.9902 45.0735 76.7755 45.0735C71.5607 45.0735 66.9717 41.0081 66.9717 35.689C66.9717 30.3699 71.5607 26.3024 76.7755 26.3024ZM119.021 26.3024C124.236 26.3024 128.825 30.3699 128.825 35.689C128.825 41.0081 124.236 45.0735 119.021 45.0735C113.806 45.0735 109.219 41.0081 109.219 35.689C109.219 30.3699 113.806 26.3024 119.021 26.3024ZM108.968 20.1143L110.532 24.2165C109.594 24.1797 108.618 24.147 107.68 24.147C105.628 24.147 104.412 24.7012 104.309 26.8587H108.792V30.6808H104.309V44.5173L99.8942 44.7954V30.6808H97.1151L98.0885 26.8587H99.8963C100.003 24.3535 101.183 22.6501 102.782 21.5049C104.52 20.2533 106.363 20.1143 108.968 20.1143ZM142.144 26.3024L140.614 30.9957C137.242 30.9957 135.747 32.9773 135.747 36.0367V44.5173L131.332 44.7954V26.8587L135.504 26.4415V29.6399H135.573C137.103 26.8934 139.085 26.3392 142.144 26.3024ZM76.7755 30.3352C73.7857 30.3352 71.1435 32.6644 71.1435 35.689C71.1435 38.7115 73.7857 41.0408 76.7755 41.0408C79.7653 41.0408 82.4074 38.7115 82.4074 35.689C82.4074 32.6644 79.7653 30.3352 76.7755 30.3352ZM119.021 30.3352C116.031 30.3352 113.389 32.6644 113.389 35.689C113.389 38.7115 116.031 41.0408 119.021 41.0408C122.011 41.0408 124.653 38.7115 124.653 35.689C124.653 32.6644 122.011 30.3352 119.021 30.3352ZM56.3234 29.6051C54.3091 29.6051 52.3949 31.1695 52.3949 33.2534C52.3949 35.3741 54.3091 36.9385 56.3234 36.9385C58.3398 36.9385 60.2518 35.3741 60.2518 33.2534C60.2518 31.1675 58.3398 29.6051 56.3234 29.6051Z" fill="#2C3334"/>
<path d="M180.189 20.1143L192.635 44.3435L187.733 45.0715L184.882 39.0244H175.739L172.96 45.0715L168.128 44.3435L180.12 20.1143H180.189ZM206.882 20.6705V25.0857H200.938V44.5173L196.351 44.7954V25.0857H189.85L190.962 20.6705H206.882ZM166.093 20.6705L166.858 25.0857H157.856V29.8485H165.087V34.2616H157.856V40.1001H167.97L166.51 44.5152H153.267V20.6705H166.093ZM180.156 28.5274L177.547 34.9937H182.901L180.156 28.5274Z" fill="#FF9E18"/>
</svg>
