<svg width="209" height="66" viewBox="0 0 209 66" fill="none" xmlns="http://www.w3.org/2000/svg">
<path fill-rule="evenodd" clip-rule="evenodd" d="M13 54.008H55.0055V12H13V54.008Z" fill="#FF9E18"/>
<path fill-rule="evenodd" clip-rule="evenodd" d="M38.1883 25.0917V27.0651C39.2726 26.3118 40.5545 25.887 41.9574 25.887C45.7363 25.887 48.799 29.0756 48.799 33.0077C48.799 36.9422 45.7363 40.1309 41.9574 40.1309C40.5594 40.1309 39.2602 39.6937 38.1784 38.9453V43.6974L34.8218 44.4656V25.9043L38.1883 25.0917ZM33.1653 20.8262V34.2427C33.1653 37.5202 30.683 40.1334 26.6151 40.1334C23.4981 40.1334 20.2773 38.3649 20.2773 33.7437V21.5943L23.7624 20.8262L23.7632 33.3807C23.7816 34.9388 24.1338 36.7792 26.7732 36.7792C29.2035 36.7792 29.6778 35.1145 29.6778 32.9509V21.5943L33.1653 20.8262ZM41.7425 28.9373C39.4973 28.9373 37.8598 30.812 37.8598 33.0028C37.8598 35.196 39.4973 37.0707 41.7425 37.0707C43.9876 37.0707 45.6252 35.196 45.6252 33.0028C45.6252 30.812 43.9876 28.9373 41.7425 28.9373Z" fill="#FEFEFE"/>
<path fill-rule="evenodd" clip-rule="evenodd" d="M177.037 26.8072L181.342 27.7161L170.732 51.3209L166.358 50.6911L169.996 42.9504L162.258 27.7161L166.637 26.8072L172.273 38.1885L177.037 26.8072ZM188.219 26.8069C190.739 26.8069 193.12 27.8221 194.799 29.714L191.895 32.3049C191.02 31.3589 189.899 30.5192 188.533 30.5192C187.236 30.5192 186.397 31.0082 186.397 32.3741C186.397 35.2811 195.187 33.2855 195.187 39.8332C195.187 43.8961 191.509 45.7189 187.903 45.7189C185.416 45.7189 182.86 44.773 181.212 42.8464L183.981 40.1147C185.137 41.3398 186.293 42.0042 188.007 42.0042C189.442 42.0042 190.494 41.0953 190.494 40.1839C190.494 36.9977 181.701 39.0626 181.701 32.2703C181.701 28.6272 184.925 26.8069 188.219 26.8069ZM97.8506 26.8057C103.104 26.8057 107.725 30.9033 107.725 36.2605C107.725 41.6201 103.104 45.7177 97.8506 45.7177C92.5996 45.7177 87.9759 41.6201 87.9759 36.2605C87.9759 30.9033 92.5996 26.8057 97.8506 26.8057ZM143.674 20.5717V45.157L139.473 45.5769V43.2305C137.618 45.0879 136.393 45.7177 133.938 45.7177C128.862 45.7177 125.15 41.1978 125.15 36.2605C125.15 31.3231 128.862 26.8057 133.938 26.8057C135.724 26.8057 137.581 27.3318 139.226 28.6976V21.1323L143.674 20.5717ZM154.719 26.8072C157.908 26.8072 161.41 28.2076 161.41 31.8161V45.156L157.344 45.5784V44.0372C156.119 45.0869 154.546 45.7167 152.899 45.7167C149.115 45.7167 146.173 43.5111 146.173 39.4481C146.173 36.2274 148.87 33.3895 152.197 33.3895C154.124 33.3895 155.383 33.7056 157.1 34.5799C157.132 34.1946 157.206 33.8439 157.206 33.3895C157.206 30.9739 155.455 30.5194 153.388 30.5194C151.637 30.5194 149.957 30.9393 148.347 31.5691L149.572 27.2962C151.254 26.9801 153.002 26.8072 154.719 26.8072ZM84.9172 20.5727V45.158L80.2935 45.4371V34.9672H70.5597V45.158L65.936 45.4371V21.1333L70.5597 20.5727V30.5189H80.2935V21.1333L84.9172 20.5727ZM114.673 20.5724V45.1578L110.227 45.4369V21.1331L114.673 20.5724ZM122.451 26.9487V45.1568L118.005 45.4359V27.3661L122.451 26.9487ZM153.877 36.8918C152.303 36.8918 150.621 37.8723 150.621 39.4481C150.621 41.0585 152.303 42.0045 153.877 42.0045C155.455 42.0045 157.132 41.0585 157.132 39.4481C157.132 37.8723 155.455 36.8918 153.877 36.8918ZM97.8506 30.8687C94.8398 30.8687 92.1772 33.2151 92.1772 36.2605C92.1772 39.3083 94.8398 41.6547 97.8506 41.6547C100.864 41.6547 103.526 39.3083 103.526 36.2605C103.526 33.2151 100.864 30.8687 97.8506 30.8687ZM134.501 30.8687C131.525 30.8687 129.351 33.3559 129.351 36.2605C129.351 39.17 131.525 41.6547 134.501 41.6547C137.475 41.6547 139.648 39.17 139.648 36.2605C139.648 33.3559 137.475 30.8687 134.501 30.8687ZM120.317 19.6279L123.326 22.6042L120.317 25.5804L117.304 22.6042L120.317 19.6279Z" fill="#2C3334"/>
</svg>
