<svg width="204" height="37" viewBox="0 0 204 37" fill="none" xmlns="http://www.w3.org/2000/svg">
<path d="M34.7814 0H0V34.7814H34.7814V0Z" fill="#FF9E18"/>
<path d="M20.8552 10.8384V12.4744C21.7529 11.8486 22.8122 11.4969 23.9758 11.4969C27.1047 11.4969 29.6425 14.137 29.6425 17.3967C29.6425 20.6544 27.1047 23.2945 23.9758 23.2945C22.8184 23.2945 21.7427 22.9325 20.847 22.3129V26.2454L18.0699 26.8814V11.5132L20.8552 10.8384ZM16.6977 7.30664V18.4171C16.6977 21.1309 14.6425 23.2945 11.2743 23.2945C8.69558 23.2945 6.02686 21.8282 6.02686 18.002V7.94264L8.91235 7.30664V17.5848C8.91235 18.8977 9.15366 20.5153 11.4052 20.5153C13.4175 20.5153 13.8101 19.139 13.8101 17.3456V7.94264L16.6977 7.30664ZM23.7979 14.0204C21.939 14.0204 20.5832 15.5746 20.5832 17.3885C20.5832 19.2045 21.939 20.7566 23.7979 20.7566C25.6568 20.7566 27.0127 19.2045 27.0127 17.3885C27.0127 15.5725 25.6568 14.0204 23.7979 14.0204Z" fill="white"/>
<path d="M63.4748 10.3311L62.6057 14.0857H59.894C61.0065 15.3352 61.667 16.6215 61.667 18.3945C61.667 20.8628 60.1373 22.6706 57.9124 23.5745C60.3807 24.7545 61.9778 26.5622 61.9778 29.3782C61.9778 34.1758 57.3541 36.3312 53.6363 36.3312C49.6035 36.3312 47.033 35.323 44.7017 32.7852L47.4133 29.9692C49.2906 31.9161 50.4031 32.6482 53.1823 32.6482C54.9553 32.6482 57.3909 31.5705 57.3909 29.2044C57.3909 26.4948 55.2702 25.2412 52.6976 25.2412C51.168 25.2412 49.7078 25.7974 48.4215 26.5275L49.1516 24.0592C46.127 22.7729 44.9818 21.2084 44.9818 18.2534C44.9818 14.1184 48.5606 11.3024 53.0453 11.3024C54.0535 11.3024 54.9574 11.3392 55.6874 11.4067C56.4154 11.4435 57.0085 11.5131 57.3214 11.5131C59.0596 11.5131 61.4932 10.9568 63.4748 10.3311ZM73.7755 11.3024C78.9902 11.3024 83.5792 15.3699 83.5792 20.689C83.5792 26.0081 78.9902 30.0735 73.7755 30.0735C68.5607 30.0735 63.9717 26.0081 63.9717 20.689C63.9717 15.3699 68.5607 11.3024 73.7755 11.3024ZM116.021 11.3024C121.236 11.3024 125.825 15.3699 125.825 20.689C125.825 26.0081 121.236 30.0735 116.021 30.0735C110.806 30.0735 106.219 26.0081 106.219 20.689C106.219 15.3699 110.806 11.3024 116.021 11.3024ZM105.968 5.11426L107.532 9.21653C106.594 9.17972 105.618 9.147 104.68 9.147C102.628 9.147 101.412 9.7012 101.309 11.8587H105.792V15.6808H101.309V29.5173L96.8942 29.7954V15.6808H94.1151L95.0885 11.8587H96.8963C97.0026 9.35355 98.1826 7.65006 99.7818 6.50486C101.52 5.25332 103.363 5.11426 105.968 5.11426ZM139.144 11.3024L137.614 15.9957C134.242 15.9957 132.747 17.9773 132.747 21.0367V29.5173L128.332 29.7954V11.8587L132.504 11.4415V14.6399H132.573C134.103 11.8934 136.085 11.3392 139.144 11.3024ZM73.7755 15.3352C70.7857 15.3352 68.1435 17.6644 68.1435 20.689C68.1435 23.7115 70.7857 26.0408 73.7755 26.0408C76.7653 26.0408 79.4074 23.7115 79.4074 20.689C79.4074 17.6644 76.7653 15.3352 73.7755 15.3352ZM116.021 15.3352C113.031 15.3352 110.389 17.6644 110.389 20.689C110.389 23.7115 113.031 26.0408 116.021 26.0408C119.011 26.0408 121.653 23.7115 121.653 20.689C121.653 17.6644 119.011 15.3352 116.021 15.3352ZM53.3234 14.6051C51.3091 14.6051 49.3949 16.1695 49.3949 18.2534C49.3949 20.3741 51.3091 21.9385 53.3234 21.9385C55.3398 21.9385 57.2518 20.3741 57.2518 18.2534C57.2518 16.1675 55.3398 14.6051 53.3234 14.6051Z" fill="#2C3334"/>
<path d="M177.189 5.11426L189.635 29.3435L184.733 30.0715L181.882 24.0244H172.739L169.96 30.0715L165.128 29.3435L177.12 5.11426H177.189ZM203.882 5.6705V10.0857H197.938V29.5173L193.351 29.7954V10.0857H186.85L187.962 5.6705H203.882ZM163.093 5.6705L163.858 10.0857H154.856V14.8485H162.087V19.2616H154.856V25.1001H164.97L163.51 29.5152H150.267V5.6705H163.093ZM177.156 13.5274L174.547 19.9937H179.901L177.156 13.5274Z" fill="#FF9E18"/>
</svg>
