<svg width="97" height="38" viewBox="0 0 97 38" fill="none" xmlns="http://www.w3.org/2000/svg">
<path fill-rule="evenodd" clip-rule="evenodd" d="M0 37.0488H34.8643V2.18457H0V37.0488Z" fill="#FF9E18"/>
<path fill-rule="evenodd" clip-rule="evenodd" d="M20.9035 13.049V14.6871C21.805 14.06 22.8676 13.7082 24.0334 13.7082C27.171 13.7082 29.7132 16.355 29.7132 19.6202C29.7132 22.8843 27.171 25.531 24.0334 25.531C22.8739 25.531 21.7953 25.1681 20.8962 24.5472V28.4902L18.1117 29.1285V13.7243L20.9035 13.049ZM16.7357 9.50879V20.6452C16.7357 23.3644 14.6756 25.5325 11.3011 25.5325C8.71357 25.5325 6.04102 24.0654 6.04102 20.2296V10.1457L8.93358 9.50879V19.8127C8.93358 21.1283 9.17478 22.7494 11.4328 22.7494C13.4485 22.7494 13.8431 21.3682 13.8431 19.5714V10.1457L16.7357 9.50879ZM23.8552 16.2406C21.9918 16.2406 20.6329 17.7965 20.6329 19.6153C20.6329 21.4344 21.9918 22.9914 23.8552 22.9914C25.7183 22.9914 27.0776 21.4344 27.0776 19.6153C27.0776 17.7965 25.7183 16.2406 23.8552 16.2406Z" fill="#FEFEFE"/>
<path fill-rule="evenodd" clip-rule="evenodd" d="M48.1938 37.8615L54.9022 37.0485V23.0727H64.3039V16.6184H54.9022V8.63967H67.6074L66.1336 2.18525H48.1938V37.8615ZM69.7927 37.4552L76.247 37.0485V10.6216L69.7927 11.2315V37.4552ZM73.1468 0L68.7763 4.31991L73.1468 8.63967L77.5174 4.31991L73.1468 0ZM82.7013 11.2315H80.1601L78.7371 16.8217H82.7013V29.2221C82.7013 34.9647 86.6651 37.8615 92.1029 37.8615C92.916 37.8615 94.034 37.8109 94.6441 37.6583L96.2194 31.8646C95.5081 31.9157 94.6947 31.9664 93.9833 31.9664C90.2226 31.9664 89.1554 30.3402 89.1554 27.8498V16.8217H94.9998V11.2315H89.1554V3.86249L82.7013 6.75935V11.2315Z" fill="#2C3334"/>
</svg>
