<svg width="125" height="44" viewBox="0 0 125 44" fill="none" xmlns="http://www.w3.org/2000/svg">
<path fill-rule="evenodd" clip-rule="evenodd" d="M0 43.8381H43.8356V0H0V43.8381Z" fill="#FF9E18"/>
<path fill-rule="evenodd" clip-rule="evenodd" d="M26.2855 13.6623V15.7217C27.417 14.9356 28.7548 14.4922 30.2188 14.4922C34.1623 14.4922 37.3584 17.8198 37.3584 21.9232C37.3584 26.0291 34.1623 29.3567 30.2188 29.3567C28.7599 29.3567 27.4041 28.9005 26.2752 28.1195V33.0786L22.7724 33.8802V14.5103L26.2855 13.6623ZM21.0436 9.21094V23.2119C21.0436 26.6323 18.4533 29.3593 14.2081 29.3593C10.9553 29.3593 7.59424 27.5138 7.59424 22.6913V10.0125L11.2311 9.21094V22.1655C11.2311 23.8202 11.5352 25.859 14.3731 25.859C16.9093 25.859 17.4042 24.1218 17.4042 21.8639V10.0125L21.0436 9.21094ZM29.9945 17.6755C27.6516 17.6755 25.9427 19.6318 25.9427 21.918C25.9427 24.2068 27.6516 26.1632 29.9945 26.1632C32.3375 26.1632 34.0464 24.2068 34.0464 21.918C34.0464 19.6318 32.3375 17.6755 29.9945 17.6755Z" fill="#FEFEFE"/>
<path fill-rule="evenodd" clip-rule="evenodd" d="M70.9303 6.99887C76.0698 6.99887 79.6963 8.85724 82.6321 11.4889L79.137 15.9815C76.6317 14.1231 74.6883 12.4838 70.7576 12.4838C65.3165 12.4838 61.2569 17.1903 61.2569 22.8917C61.2569 28.8509 66.4403 32.5213 70.9741 32.5213C73.1314 32.5213 75.6368 31.614 77.3637 30.4928V25.3945H68.7291L70.5436 19.9121H83.0651V33.5574C81.1655 35.7586 75.4203 38.0062 70.9741 38.0062C62.3807 38.0062 55.3003 31.2248 55.3003 22.4587C55.3003 13.5199 62.8137 6.99887 70.9303 6.99887ZM109.389 20.1271H103.819V37.3139L98.3337 37.6593V20.1271H94.8773L96.0887 15.3768H98.3337C98.4626 12.2683 99.9318 10.1522 101.919 8.72682C104.079 7.17259 106.365 6.9999 109.605 6.9999L111.549 12.0956C110.381 12.0518 109.172 12.008 108.007 12.008C105.461 12.008 103.948 12.6988 103.819 15.3768H109.389L109.388 19.589L110.463 15.3763H112.621V11.577L118.106 9.11551V15.3763H123.073V20.1266H118.106V29.4984C118.106 31.6145 119.013 32.9961 122.209 32.9961C122.812 32.9961 123.506 32.9522 124.109 32.9084L122.771 37.834C122.25 37.9629 121.302 38.0041 120.611 38.0041C115.992 38.0041 112.621 35.5426 112.621 30.6634V20.1266L109.388 20.126L109.389 20.1271ZM92.7687 14.8584V37.3136L87.2837 37.659V15.3765L92.7687 14.8584ZM90.1345 5.83203L93.8486 9.50497L90.1345 13.1753L86.4203 9.50497L90.1345 5.83203Z" fill="#2C3334"/>
</svg>
