<svg width="100" height="100" viewBox="0 0 100 100" fill="none" xmlns="http://www.w3.org/2000/svg">
<path fill-rule="evenodd" clip-rule="evenodd" d="M37.9012 43.9193C37.9012 48.382 36.9219 51.8105 31.9155 51.8105C26.3099 51.8105 25.7113 47.7829 25.7113 44.5184V18.9346L18.5273 20.5174V45.5526C18.5273 55.0754 25.1671 58.7219 31.5885 58.7219C39.9709 58.7219 45.0852 53.3348 45.0852 46.5856V18.9346L37.9012 20.5174V43.9193Z" fill="white"/>
<path fill-rule="evenodd" clip-rule="evenodd" d="M62.7602 52.4096C58.1356 52.4096 54.7608 48.546 54.7608 44.0283C54.7608 39.5116 58.1356 35.6467 62.7602 35.6467C67.3864 35.6467 70.7611 39.5116 70.7611 44.0283C70.7611 48.546 67.3864 52.4096 62.7602 52.4096ZM63.2031 29.3624C60.309 29.3624 57.6711 30.2368 55.4335 31.7936V27.7246L48.5029 29.4006V67.6478L55.4144 66.0633V56.2744C57.6451 57.8167 60.3232 58.7175 63.2031 58.7175C70.9913 58.7175 77.3053 52.1461 77.3053 44.0401C77.3053 35.9334 70.9913 29.3624 63.2031 29.3624Z" fill="white"/>
<path fill-rule="evenodd" clip-rule="evenodd" d="M33.0101 74.8004L34.7084 74.5938V83.6269L33.0101 83.7302V79.8829H29.4327V83.6269L27.7344 83.7302V74.8004L29.4327 74.5938V78.2487H33.0101V74.8004Z" fill="white"/>
<path fill-rule="evenodd" clip-rule="evenodd" d="M36.3555 83.6274V74.8008H41.1037L41.3867 76.4341H38.0542V78.1971H40.7307V79.8316H38.0542V81.9928H41.7987L41.2582 83.6274H36.3555Z" fill="white"/>
<path fill-rule="evenodd" clip-rule="evenodd" d="M42.8154 83.6269V74.8004L44.5142 74.5938V81.9924H47.7308L47.3062 83.6269H42.8154Z" fill="white"/>
<path fill-rule="evenodd" clip-rule="evenodd" d="M48.5293 83.6269V74.8004L50.2281 74.5938V81.9924H53.4451L53.0201 83.6269H48.5293Z" fill="white"/>
<path fill-rule="evenodd" clip-rule="evenodd" d="M56.6238 80.1013H58.6052L57.5884 77.7082L56.6238 80.1013ZM53.1367 83.5627L57.5758 74.5938H57.601L62.2077 83.5627L60.3934 83.8327L59.3389 81.5938H55.9543L54.925 83.8327L53.1367 83.5627Z" fill="white"/>
<path fill-rule="evenodd" clip-rule="evenodd" d="M63.4058 81.2461C63.8434 81.735 64.1525 82.1982 65.1046 82.1982C65.709 82.1982 66.2369 81.7224 66.2369 81.1819C66.2369 79.4322 62.3895 80.4226 62.3895 77.2959C62.3895 75.6101 63.6507 74.5938 65.3999 74.5938C66.2755 74.5938 67.3435 75.083 67.871 75.7903L66.816 77.0258C66.4036 76.5886 65.7732 76.2279 65.2974 76.2279C64.7056 76.2279 64.1651 76.4853 64.1651 77.2959C64.1651 78.8015 68.0125 77.7209 68.0125 81.1953C68.0125 82.8034 66.6745 83.8323 65.0139 83.8323C63.9077 83.8323 62.9812 83.3695 62.2354 82.4565L63.4058 81.2461Z" fill="white"/>
</svg>
